<?xml version="1.0" encoding="UTF-8" standalone="no"?>
<!-- Created with Inkscape (http://www.inkscape.org/) -->

<svg
   xmlns:dc="http://purl.org/dc/elements/1.1/"
   xmlns:cc="http://creativecommons.org/ns#"
   xmlns:rdf="http://www.w3.org/1999/02/22-rdf-syntax-ns#"
   xmlns:svg="http://www.w3.org/2000/svg"
   xmlns="http://www.w3.org/2000/svg"
   xmlns:sodipodi="http://sodipodi.sourceforge.net/DTD/sodipodi-0.dtd"
   xmlns:inkscape="http://www.inkscape.org/namespaces/inkscape"
   width="210mm"
   height="297mm"
   viewBox="0 0 210 297"
   version="1.1"
   id="svg8"
   inkscape:version="0.92.5 (2060ec1f9f, 2020-04-08)"
   sodipodi:docname="aguasucia.svg">
  <defs
     id="defs2" />
  <sodipodi:namedview
     id="base"
     pagecolor="#ffffff"
     bordercolor="#666666"
     borderopacity="1.0"
     inkscape:pageopacity="0.0"
     inkscape:pageshadow="2"
     inkscape:zoom="0.35"
     inkscape:cx="369.79605"
     inkscape:cy="757.20533"
     inkscape:document-units="mm"
     inkscape:current-layer="layer1"
     showgrid="false"
     inkscape:window-width="1366"
     inkscape:window-height="704"
     inkscape:window-x="0"
     inkscape:window-y="27"
     inkscape:window-maximized="1" />
  <metadata
     id="metadata5">
    <rdf:RDF>
      <cc:Work
         rdf:about="">
        <dc:format>image/svg+xml</dc:format>
        <dc:type
           rdf:resource="http://purl.org/dc/dcmitype/StillImage" />
        <dc:title />
      </cc:Work>
    </rdf:RDF>
  </metadata>
  <g
     inkscape:label="Layer 1"
     inkscape:groupmode="layer"
     id="layer1">
    <path
       style="fill:#060226;stroke-width:0.33994338;fill-opacity:1"
       d="m 46.51022,139.34324 v -12.91786 h 1.189802 1.189801 v 10.90054 c 0,6.47986 0.135312,11.15338 0.333652,11.52397 0.240041,0.44852 0.907662,0.69005 2.379604,0.86089 l 2.045952,0.23746 v 1.15642 1.15643 H 50.079626 46.51022 Z m 13.257793,11.72804 v -1.1898 h 3.384031 3.384028 l 0.190508,-1.10481 c 0.3782,-2.19333 1.197488,-8.52951 1.113722,-8.61327 -0.04715,-0.0471 -0.926614,-0.29864 -1.954365,-0.55886 l -1.868631,-0.47311 -0.09319,-5.88338 c -0.06542,-4.13077 0.0258,-6.02677 0.306283,-6.36472 0.304946,-0.36743 1.171625,-0.45845 3.662594,-0.38465 3.228253,0.0956 3.263121,0.10574 3.263121,0.94653 0,0.80196 -0.138904,0.86605 -2.46459,1.13705 l -2.464589,0.28717 0.0031,2.2624 c 0.0041,3.16116 0.370039,5.86941 0.812849,6.01623 0.205699,0.0682 1.232948,0.3654 2.282771,0.66045 l 1.908771,0.53645 -0.312723,1.60396 c -0.172001,0.88217 -0.450368,2.36882 -0.618595,3.30367 -1.762345,9.79337 -1.199205,9.0085 -6.463466,9.0085 h -4.071591 z m 31.535044,-8.41359 -0.09032,-9.60341 -1.25954,5.90542 c -0.692739,3.24799 -1.336283,5.98219 -1.4301,6.07599 -0.710213,0.71022 -1.174241,-0.69786 -2.227926,-6.76061 -0.629025,-3.61931 -1.271401,-6.7259 -1.427507,-6.90352 -0.156106,-0.17763 -0.283831,4.06743 -0.283831,9.43343 v 9.75638 h -0.84986 -0.849861 v -12.06799 -12.068 h 1.169795 c 0.643351,0 1.260197,0.14636 1.370743,0.32523 0.110495,0.17889 0.74683,3.27661 1.41395,6.88386 1.171324,6.33356 1.333508,7.00656 1.614705,6.70027 0.117561,-0.1281 1.078855,-5.41669 1.941165,-10.6799 0.50265,-3.06794 0.58457,-3.22946 1.638166,-3.22946 h 0.944 l 0.224022,5.01417 c 0.123215,2.75779 0.324444,8.57082 0.44717,12.91785 l 0.223149,7.90369 h -1.238816 -1.238816 z m 11.171003,8.66855 c -0.0994,-0.51416 -0.35842,-2.38342 -0.57546,-4.15389 -0.55311,-4.51176 -0.51675,-4.45153 -2.231831,-3.69713 l -1.404378,0.61773 -0.229342,2.6393 c -0.402317,4.62978 -0.474126,4.84895 -1.588982,4.84895 -0.944886,0 -0.981992,-0.061 -0.981928,-1.61473 3.9e-5,-0.88811 0.220746,-4.52125 0.49047,-8.07367 0.269723,-3.5524 0.595323,-8.17987 0.723549,-10.28328 l 0.233157,-3.82436 h 2.83931 c 3.359825,0 3.053305,-0.55843 3.358735,6.11899 0.11551,2.52407 0.39489,7.68696 0.62098,11.47308 l 0.41108,6.88386 h -0.74225 c -0.53928,0 -0.79172,-0.25567 -0.92311,-0.93485 z m -1.91042,-13.42776 c 10e-4,-2.10341 0.10112,-4.86935 0.22171,-6.14656 l 0.21928,-2.32219 -0.98658,0.11255 -0.986576,0.11255 -0.09276,6.034 -0.09276,6.03399 h 0.85771 0.857696 l 0.003,-3.82436 z m 30.77357,13.25779 c -0.31235,-1.81953 -1.20091,-8.04311 -1.20091,-8.41137 0,-0.1882 -0.68838,-0.34217 -1.52975,-0.34217 h -1.52974 v 2.71955 2.71954 h -1.06321 -1.06319 l 0.21922,-6.54392 c 0.12051,-3.59914 0.31268,-8.49432 0.42693,-10.87818 l 0.20772,-4.33428 h 2.80547 2.80546 l 0.2183,3.14447 c 0.21179,3.05088 0.66732,10.86467 1.10984,19.03684 0.21139,3.90395 0.20009,3.99434 -0.50009,3.99434 -0.54269,0 -0.76236,-0.26787 -0.90605,-1.10482 z m -1.8808,-16.74222 c 0,-6.15675 -0.0436,-6.62889 -0.6119,-6.62889 -1.29018,0 -1.42776,0.62492 -1.42776,6.48544 0,5.49486 0.0235,5.68604 0.76487,6.20314 0.42069,0.29345 0.8796,0.54157 1.01983,0.55138 0.14024,0.0103 0.25496,-2.96517 0.25496,-6.61107 z m 5.09915,16.90898 c 0,-0.58181 0.26844,-1.1057 0.70682,-1.37947 0.6936,-0.43317 0.70301,-0.59508 0.50315,-8.66535 -0.11204,-4.52315 -0.28935,-9.71543 -0.39411,-11.53838 l -0.19046,-3.31445 h 2.99038 c 1.94845,0 3.49775,0.19377 4.44651,0.5561 l 1.45613,0.5561 v 12.00985 c 0,11.52586 -0.0265,12.02403 -0.65754,12.36175 -0.36164,0.19354 -2.50329,0.35191 -4.7592,0.35191 h -4.10168 z m 6.28224,-2.03645 c 0.2698,-0.68006 0.82021,-11.79123 0.84199,-16.99718 l 0.0145,-3.48441 h -1.69971 -1.69972 v 10.53825 10.53824 h 1.15342 c 0.78197,0 1.22944,-0.19158 1.38944,-0.5949 z m 10.37499,1.7847 v -1.1898 h 3.53256 c 4.08264,0 3.75089,0.34373 4.10124,-4.24929 0.11409,-1.49576 0.2855,-3.35144 0.38089,-4.12375 0.16228,-1.31384 0.1123,-1.41898 -0.77615,-1.63357 -0.52228,-0.12617 -1.52325,-0.37976 -2.22438,-0.56358 l -1.27479,-0.3342 v -5.52033 c 0,-7.21531 -0.11666,-7.03138 4.46112,-7.03138 h 3.40275 l -0.10754,0.93159 c -0.1024,0.88708 -0.22934,0.94797 -2.65715,1.27478 l -2.54957,0.34321 0.0877,1.35977 c 0.32423,5.02444 0.54115,6.69369 0.88471,6.80822 0.21302,0.071 1.24248,0.36941 2.28767,0.66312 l 1.90036,0.534 -0.94427,6.31537 c -0.66885,4.47332 -1.11456,6.50355 -1.52811,6.96051 -0.5133,0.56718 -1.09092,0.64514 -4.78045,0.64514 h -4.1966 z m -45.55242,-11.73871 c 0,-10.57409 -0.0698,-12.27539 -0.50992,-12.4443 -0.28045,-0.10767 -0.50991,-0.40877 -0.50991,-0.66923 0,-0.37592 0.76701,-0.47354 3.72042,-0.47354 3.39572,0 3.7899,0.0667 4.51647,0.76487 0.78732,0.75648 0.79406,0.82603 0.61387,6.33785 l -0.18221,5.57299 -1.07674,0.86625 -1.07675,0.86626 0.95611,1.89403 c 0.65945,1.30636 1.07236,2.84191 1.33075,4.94887 0.56661,4.62018 0.57265,4.58458 -0.77688,4.58458 -0.67768,0 -1.22912,-0.19725 -1.33693,-0.4782 -0.10099,-0.26302 -0.28976,-1.92584 -0.41965,-3.69517 -0.19697,-2.68345 -0.41217,-3.54499 -1.29762,-5.19496 -1.75889,-3.27754 -1.91135,-2.99349 -1.91135,3.56096 v 5.80737 h -1.01983 -1.01983 z m 5.02298,-6.69453 0.0938,-5.17544 -0.8579,-0.21533 c -1.80512,-0.45305 -1.87927,-0.24672 -1.87927,5.22977 0,2.77924 0.10921,5.16239 0.24275,5.29591 0.1335,0.1335 0.70715,0.19724 1.27479,0.14164 l 1.03205,-0.10112 z m 5.30017,11.37942 c 0.12206,-4.16006 0.31822,-9.82012 0.43597,-12.57791 l 0.21408,-5.01417 h 3.18196 3.18196 v 1.34356 1.34355 l -2.12465,0.10125 -2.12464,0.10124 v 3.73938 3.73937 l 1.7847,0.10279 c 1.63487,0.0942 1.7847,0.17206 1.7847,0.92836 0,0.58361 -0.22421,0.87109 -0.76487,0.98073 -0.42068,0.0853 -1.18556,0.24412 -1.69972,0.35291 l -0.93484,0.19777 v 5.09268 5.09267 l 1.44476,-0.006 c 0.79461,-0.004 2.81955,-0.15064 4.49984,-0.32735 1.68031,-0.17672 3.15158,-0.21224 3.2695,-0.0789 0.11794,0.1333 0.3073,0.73952 0.42083,1.34717 l 0.20643,1.10482 h -6.49894 -6.49893 l 0.22186,-7.56374 z m -80.351489,0.2252 v -4.61899 l -1.189803,-2.12756 -1.189801,-2.12756 v -4.47159 -4.47158 h 0.999002 c 1.151734,0 1.194894,0.17888 1.556849,6.4518 0.188583,3.26827 0.52029,4.32638 1.220591,3.89357 0.131724,-0.0815 0.334436,-1.6393 0.450472,-3.46199 0.433051,-6.80246 0.451584,-6.88338 1.576586,-6.88338 h 0.995367 v 4.68707 4.68706 l -1.006014,1.17696 -1.006014,1.17697 -0.0138,5.35409 -0.01382,5.35412 h -1.189809 -1.189802 z m 110.906529,2.93846 c -0.75983,-0.63388 -0.76487,-0.70082 -0.76487,-10.16772 0,-11.19159 -0.22285,-10.58802 3.90935,-10.58802 4.1344,0 3.90935,-0.61335 3.90935,10.6542 v 9.59582 l -0.98729,0.58321 c -1.40538,0.83018 -5.03407,0.78383 -6.06654,-0.0775 z m 4.14793,-2.14383 c 0.0727,-0.23371 0.20749,-4.05807 0.29946,-8.49858 l 0.16719,-8.07367 h -1.32995 -1.32995 v 8.4986 8.49858 h 1.0305 c 0.56677,0 1.09002,-0.19122 1.16275,-0.42493 z m -95.422727,1.74557 -0.934844,-0.69746 v -10.11727 c 0,-11.99804 -0.266707,-11.24246 3.968413,-11.24246 4.095197,0 3.850285,-0.72749 3.850285,11.43689 v 10.19356 l -1.201336,0.57288 c -1.693762,0.80769 -4.500817,0.73551 -5.682518,-0.14614 z m 4.239294,-8.45945 c 0.04124,-3.73939 0.07948,-7.90794 0.08499,-9.26347 l 0.01002,-2.46459 h -1.189802 -1.189803 l -0.09045,9.26346 -0.09045,9.26347 h 1.195265 1.195265 l 0.07498,-6.79887 z m -62.1146604,7.19521 c -2.4443868,-1.16236 -3.5694057,-2.94192 -3.5694057,-5.64609 0,-4.47425 4.4543974,-7.73102 9.0516763,-6.61802 2.8788866,0.69698 4.4582056,1.99066 7.7383638,6.33879 1.966922,2.60732 3.829662,3.75641 6.550332,4.04078 2.396519,0.25047 4.658785,-0.56359 6.489662,-2.33529 0.607649,-0.588 1.104816,-0.898 1.104816,-0.6889 0,0.84499 -2.311727,3.30023 -3.869086,4.10929 -1.525414,0.79244 -2.027943,0.86413 -6.2214,0.88754 -4.184278,0.0234 -4.549064,-0.0238 -4.406366,-0.56943 0.121814,-0.4658 -0.05883,-0.5949 -0.8324271,-0.5949 -1.0351544,0 -1.2369516,-0.29497 -0.6223065,-0.90961 0.2609711,-0.26097 0.058961,-0.47263 -0.7053833,-0.73908 -1.0399108,-0.36251 -1.1392419,-1.07086 -0.1501666,-1.07086 0.7559528,0 0.6184829,-0.26911 -1.2237307,-2.39561 -2.0215148,-2.33346 -3.9335304,-3.24187 -6.18734168,-2.93963 -3.43263862,0.46031 -4.64493572,4.90881 -1.62466692,5.96169 1.20459324,0.41992 1.2719425,0.29838 0.34711872,-0.62645 -0.76948842,-0.76949 -0.85670752,-1.61959 -0.29308542,-2.85661 0.76558383,-1.68027 3.4673354,-1.72002 5.0139042,-0.0737 1.6062695,1.7098 1.0947702,4.87284 -1.0411044,6.43811 -1.3038935,0.95555 -3.86601279,1.08854 -5.5494027,0.28806 z M 193.4733,145.48149 c -3.42024,-1.55284 -3.47637,-6.58305 -0.086,-7.70925 2.84745,-0.94586 4.85812,1.72945 3.03844,4.04281 l -0.67943,0.86376 0.76442,-0.18598 c 1.37373,-0.33419 1.95422,-1.12017 1.95422,-2.64598 0,-3.3677 -4.29831,-4.71764 -7.50318,-2.35646 -0.64096,0.47221 -1.73667,1.57946 -2.43492,2.46054 -1.14842,1.44912 -1.20517,1.61233 -0.5949,1.71059 1.00562,0.16192 0.81688,0.71223 -0.43017,1.25425 -0.60766,0.26411 -0.9136,0.48619 -0.67989,0.4935 0.2337,0.008 0.42493,0.24277 0.42493,0.52322 0,0.3444 -0.34457,0.50992 -1.06146,0.50992 -0.84943,0 -0.98582,0.0911 -0.68284,0.45621 0.20825,0.25091 0.31453,0.5203 0.23621,0.59862 -0.0784,0.0784 -2.18594,0.12232 -4.68357,0.0978 -3.91108,-0.0386 -4.72809,-0.1441 -5.88862,-0.76094 -1.72566,-0.91724 -2.19068,-1.31037 -3.31599,-2.8033 -1.26169,-1.67386 -1.15483,-1.94333 0.27337,-0.68937 2.0361,1.78772 3.18156,2.23247 5.77445,2.2421 3.12785,0.0116 4.82434,-0.91688 7.13278,-3.90374 2.92294,-3.78196 4.9327,-5.58986 6.81557,-6.13101 4.78875,-1.37629 8.63183,0.49402 10.01285,4.87295 0.87052,2.76027 -0.94339,6.22643 -3.80006,7.26141 -1.62961,0.59041 -2.9717,0.53144 -4.58619,-0.20157 z m -178.126387,-5.0974 c -1.900984,-0.86311 -2.557401,-1.93239 -2.425931,-3.95174 0.08473,-1.30153 0.286882,-1.7454 1.055236,-2.31706 0.876744,-0.65229 1.021685,-0.6673 1.869688,-0.19357 1.321714,0.73837 1.434469,2.38107 0.228548,3.32964 l -0.897903,0.70629 1.134251,0.7105 c 0.930719,0.58299 1.561269,0.69041 3.51386,0.59864 1.369492,-0.0644 2.872008,-0.36111 3.539603,-0.69906 1.490332,-0.75444 1.722606,-0.52776 0.41401,0.40404 -2.917081,2.07715 -5.875592,2.57272 -8.431362,1.41232 z m 158.812057,-0.14614 c -0.93484,-0.43909 -1.99397,-1.12913 -2.35364,-1.53341 l -0.65391,-0.73505 1.5816,0.69961 c 2.5516,1.12868 6.19891,0.9014 7.32589,-0.45655 0.36025,-0.43408 0.31899,-0.58259 -0.2459,-0.88491 -2.2006,-1.17772 -0.48671,-4.4148 1.78858,-3.37811 1.59544,0.72694 1.99109,2.82241 0.8777,4.6486 -1.42817,2.34248 -5.22937,3.09165 -8.32032,1.63982 z M 8.8359846,133.80584 c -0.2932421,-0.35334 -0.2768709,-0.61924 0.067094,-1.08964 0.6148416,-0.84085 1.6579554,-0.43516 1.5120004,0.58805 -0.127095,0.89093 -1.0204519,1.17471 -1.5790914,0.50159 z m 176.4940754,-0.0717 c -0.2693,-0.70178 0.0958,-1.52974 0.67464,-1.52974 0.68052,0 1.35429,0.91699 1.12082,1.52542 -0.25486,0.66413 -1.54107,0.66724 -1.79546,0.004 z M 5.6180365,131.99213 c -0.4231213,-0.42312 -0.2586495,-1.4079 0.268946,-1.61036 0.8348668,-0.32037 1.5741489,0.15021 1.4627314,0.93108 -0.1019766,0.71477 -1.2470271,1.16393 -1.7316774,0.67928 z m 182.8493235,-0.34 c -0.28834,-0.75141 0.5847,-1.65005 1.32649,-1.3654 0.34508,0.13242 0.51834,0.50917 0.45129,0.98133 -0.13555,0.9546 -1.44988,1.23853 -1.77778,0.38407 z m -221.209706,-1.42311 c 0.374238,-0.52557 0.77619,-1.33712 0.89323,-1.80343 0.173909,-0.69292 -1.164921,-9.51903 -4.248204,-28.00587 -0.415043,-2.488531 -1.584665,-10.567501 -2.067024,-14.277627 -0.538105,-4.138897 -1.05182,-5.002994 -3.172639,-5.336586 -1.305073,-0.205276 -0.853468,-0.870816 1.235436,-1.8207 1.764492,-0.802374 2.605186,-0.973076 4.835451,-0.981812 2.36488,-0.009 2.797701,-0.108697 3.490607,-0.801577 0.435042,-0.435042 1.591318,-1.1552 2.5695,-1.60034 2.021533,-0.919935 5.347922,-1.486531 5.347922,-0.910942 0,0.200022 -0.154062,0.458889 -0.342361,0.575268 -0.188298,0.116405 -0.585342,0.681459 -0.88232,1.25575 l -0.53996,1.044178 8.715641,17.546166 c 4.793606,9.650402 9.5121818,19.152412 10.4857249,21.115582 1.5954795,3.21733 1.9113719,3.63647 3.2025187,4.24929 0.7878421,0.37395 1.4379843,0.80243 1.4447592,0.9522 0.025864,0.5721 -2.6246594,1.40611 -4.602548,1.44823 -1.6224892,0.0346 -2.3468673,0.23531 -3.3786169,0.9364 -1.3077249,0.88863 -4.7417649,1.88827 -5.1351839,1.49485 -0.113656,-0.11371 0.116752,-0.61776 0.512008,-1.12024 1.031732,-1.31164 0.89719,-2.55036 -0.631281,-5.81203 -1.227444,-2.61929 -1.420213,-2.85931 -2.124647,-2.64543 -4.315013,1.3101 -7.063487,2.2703 -7.062591,2.46737 0.0053,1.16654 1.166578,6.51759 1.53938,7.0933 0.261886,0.40444 0.940263,0.83727 1.507506,0.96186 0.567242,0.12463 1.031349,0.37594 1.031349,0.55858 0,0.59612 -3.111256,1.72533 -4.890624,1.77501 -1.160837,0.0324 -2.077049,0.28746 -2.758103,0.76774 -1.791283,1.26322 -3.162583,1.83038 -4.425531,1.83038 h -1.229832 z m 10.361253,-19.82509 c 1.337806,-0.39821 2.553917,-0.83334 2.702466,-0.96697 0.14855,-0.13364 -1.73244,-4.26254 -4.179974,-9.17535 -2.447536,-4.912805 -4.503715,-8.875682 -4.569286,-8.806391 -0.10127,0.107026 0.636938,4.999551 2.59643,17.208121 0.217563,1.35553 0.535614,2.46459 0.706778,2.46459 0.171166,0 1.405779,-0.32579 2.743586,-0.724 z m 24.1315993,20.24439 c -0.1131803,-0.29496 0.044596,-0.78666 0.3506147,-1.09268 0.5152356,-0.51524 0.597562,-0.51524 1.1127976,0 0.6950109,0.69501 0.3760042,1.62895 -0.5563988,1.62895 -0.3856725,0 -0.7938294,-0.24132 -0.9070135,-0.53627 z m 190.3774537,0.0239 c -0.11821,-0.30808 0.008,-0.78335 0.28112,-1.05618 0.68019,-0.68019 1.70043,-0.24012 1.56957,0.67703 -0.12894,0.90361 -1.53861,1.19242 -1.85069,0.37915 z m 33.53487,-0.0292 c -0.65307,-0.2832 -1.5449,-0.85087 -1.98187,-1.26148 -0.60603,-0.56947 -1.25172,-0.75876 -2.72197,-0.79798 -2.03376,-0.0542 -4.06632,-0.74379 -4.80071,-1.62867 -0.37424,-0.45092 -0.33318,-0.52954 0.27666,-0.52954 0.39388,0 1.17594,-0.42068 1.73791,-0.93484 0.88384,-0.80865 1.09426,-1.36372 1.55888,-4.11221 0.2954,-1.74755 0.48817,-3.2236 0.42836,-3.28009 -0.23486,-0.22187 -7.59865,-2.46335 -7.77001,-2.36515 -0.10034,0.0576 -0.84908,1.57441 -1.6638,3.37084 -1.55078,3.41944 -1.55988,3.58555 -0.29285,5.35048 0.22846,0.31822 0.31636,0.6776 0.19535,0.79862 -0.4297,0.4297 -2.88264,-0.24072 -4.70525,-1.28601 -1.41011,-0.8087 -2.19403,-1.04033 -3.29947,-0.9749 -0.79747,0.0472 -2.40371,-0.22113 -3.56941,-0.59628 -1.16571,-0.37516 -2.65488,-0.78329 -3.30928,-0.90694 -0.65439,-0.1236 -1.76017,-0.59328 -2.45729,-1.04361 -1.01063,-0.65284 -1.71899,-0.81877 -3.49534,-0.81877 -2.12585,0 -4.59391,-0.67787 -4.57825,-1.25744 0.004,-0.14978 0.48145,-0.50177 1.06091,-0.78222 1.39365,-0.67452 1.7867,-1.5057 2.81325,-5.94901 0.47517,-2.05666 2.71669,-11.54109 4.98118,-21.076497 2.26448,-9.535408 4.13875,-17.903618 4.16501,-18.59601 0.0361,-0.950167 -0.18116,-1.497863 -0.88566,-2.233207 -1.40681,-1.468375 -0.74742,-1.756562 2.45011,-1.070812 0.93929,0.201435 2.25389,0.736848 2.92136,1.1898 0.95236,0.646293 1.6676,0.826747 3.32311,0.838426 1.16025,0.0077 2.86433,0.27589 3.78682,0.5949 1.74338,0.602878 2.47185,1.429882 1.25954,1.429882 -0.3791,0 -1.0874,0.344192 -1.574,0.764869 -0.89953,0.777667 -1.05141,1.279327 -5.48035,18.101982 -0.49224,1.869691 -1.23991,4.699724 -1.6615,6.288964 -0.42159,1.589229 -1.16802,4.419263 -1.65873,6.288943 -0.49071,1.86969 -1.5038,5.72405 -2.2513,8.56523 -0.7475,2.84119 -1.35909,5.52244 -1.35909,5.95836 0,1.16636 0.88918,2.27413 1.66299,2.07177 1.34091,-0.35066 2.46611,-2.20153 6.16227,-10.13643 2.0902,-4.48725 6.46223,-13.574402 9.71561,-20.193668 3.34058,-6.796687 5.91523,-12.444908 5.91523,-12.976749 0,-0.517952 -0.38639,-1.400922 -0.85864,-1.96216 -0.48665,-0.578338 -0.714,-1.109806 -0.52478,-1.226751 0.18361,-0.11345 1.36971,0.03392 2.63575,0.327515 2.39448,0.555314 4.59971,1.653288 5.64879,2.812496 0.49848,0.55083 0.83038,0.626121 1.79798,0.407893 0.73007,-0.164663 2.01769,-0.09379 3.34654,0.18427 3.45595,0.723087 6.42376,2.542168 4.14752,2.542168 -0.44222,0 -1.18921,0.302988 -1.65999,0.6733 -0.87578,0.688885 -1.29874,2.286437 -1.80178,6.80545 -0.39005,3.503924 -3.54241,25.303796 -4.71632,32.615336 -1.03224,6.42918 -1.11698,7.41733 -0.71806,8.3721 0.24877,0.5954 0.62089,1.18673 0.82694,1.31408 1.44689,0.89423 -1.08397,1.17036 -3.02237,0.32977 z m -2.84536,-29.54345 c 0.78061,-5.422098 1.3804,-9.898854 1.33289,-9.948345 -0.12322,-0.128354 -8.68826,17.785045 -8.68826,18.171165 0,0.38196 4.29965,1.7601 5.26266,1.6868 0.61892,-0.0472 0.78827,-0.84907 2.09271,-9.90962 z M -0.09030043,119.89821 c -0.24788395,-0.59844 -0.42622158,-1.70193 -0.39630313,-2.45218 0.0415384,-1.04162 -0.21990559,-1.77735 -1.10593154,-3.1122 -1.7632379,-2.65643 -2.2146832,-3.9584 -4.8835688,-14.08408 -0.3696032,-1.402273 -1.0772298,-4.079325 -1.5725069,-5.949016 -3.4294032,-12.946169 -3.7008142,-14.662503 -2.8518132,-18.034194 0.316818,-1.258191 0.285098,-1.70752 -0.191431,-2.711727 -0.314142,-0.662006 -0.523268,-1.619098 -0.464724,-2.126874 0.102054,-0.885155 0.192775,-0.92573 2.199051,-0.983598 1.4429849,-0.04163 2.7057177,-0.340813 4.0676302,-0.963773 3.7397273,-1.710579 5.3551242,-2.096566 10.5796331,-2.527843 2.5807107,-0.213037 3.804399,-0.477621 4.7272467,-1.022117 1.139347,-0.672234 1.291224,-0.688628 1.787048,-0.19293 0.349091,0.34901 0.551161,1.174935 0.567972,2.321513 0.01506,1.02673 0.259213,2.136343 0.577066,2.622547 1.08015,1.652247 2.211132,4.623432 2.779401,7.301714 0.822821,3.877989 1.108175,4.465026 2.488876,5.120223 1.127524,0.535039 1.173057,0.612616 0.603821,1.028848 -0.928804,0.679159 -3.937639,1.176142 -5.285457,0.873013 -0.965229,-0.217071 -1.421165,-0.116662 -2.415573,0.532213 -1.3471757,0.879001 -4.6993277,1.579012 -5.2116558,1.088325 -0.1952562,-0.187019 -0.030861,-0.611102 0.4249291,-1.09629 0.9222798,-0.981723 0.9446114,-2.291537 0.096786,-5.676641 -1.2165254,-4.85718 -1.8398893,-5.630413 -4.314273,-5.351516 -2.40217008,0.270751 -3.3701794,1.408104 -3.3288042,3.911124 0.017743,1.072675 0.35571936,3.250596 0.75108713,4.839822 0.39536521,1.589238 1.40370137,5.796039 2.24074457,9.34844 3.7969201,16.114077 4.0549773,16.997087 5.3896732,18.441937 0.4980241,0.53913 1.0939313,0.76487 2.0190403,0.76487 2.8627807,0 3.8551957,-1.7926 3.3217427,-6.00004 C 12.13643,102.86603 11.163798,98.544025 10.75178,97.99755 10.593162,97.787173 9.8522212,97.517308 9.1052429,97.39787 7.4586324,97.134558 5.0371232,94.914264 5.0371232,93.667778 c 0,-0.694127 0.2418427,-0.853998 1.7847035,-1.179817 0.9815861,-0.207293 3.8895443,-0.823367 6.4621273,-1.369058 2.572583,-0.545691 4.740768,-0.889678 4.818194,-0.764407 0.07742,0.12527 1.086143,5.041771 2.241601,10.925524 1.155457,5.88377 2.308106,11.1984 2.561446,11.81029 0.253339,0.61188 0.924931,1.37675 1.492426,1.69972 1.233526,0.70199 1.288573,0.95015 0.271234,1.22279 -1.891516,0.5069 -4.906501,0.21766 -6.486161,-0.62225 l -1.573257,-0.8365 -0.895568,1.17414 c -0.517682,0.67872 -1.813458,1.62603 -3.070926,2.24508 -1.848327,0.90992 -2.7027473,1.10459 -5.6834229,1.29486 -2.7231939,0.17382 -3.7913618,0.39107 -4.7743176,0.97103 -1.637722,0.96628 -1.74039497,0.9509 -2.27550293,-0.34097 z M 179.95778,117.16056 c -0.85775,-0.6392 -1.60758,-0.77569 -5.26913,-0.95914 -3.59262,-0.17999 -4.61918,-0.36187 -6.47869,-1.14785 -3.53149,-1.49268 -4.63105,-1.74345 -5.76602,-1.31507 -0.5464,0.20625 -1.07881,0.28965 -1.18313,0.18532 -0.32303,-0.32303 -0.20868,-2.80504 0.16107,-3.49594 0.25193,-0.47072 0.19209,-1.43827 -0.2124,-3.43451 -0.68996,-3.40514 -0.68811,-3.4243 1.88565,-19.467803 2.20267,-13.730234 2.81776,-16.246154 4.60832,-18.849172 0.95368,-1.386391 1.1864,-2.046997 1.1864,-3.367643 0,-0.903618 0.20177,-1.918887 0.44838,-2.256141 0.42859,-0.586137 0.51483,-0.578891 1.95466,0.164137 1.23318,0.636387 2.30763,0.822378 5.92557,1.025753 4.65826,0.261873 5.95181,0.537096 8.93272,1.900591 1.2878,0.589054 2.51629,0.859086 4.10159,0.901549 2.21031,0.05923 2.2657,0.08287 2.37254,1.014486 0.0601,0.52462 -0.19977,1.547019 -0.57765,2.271995 -0.55128,1.057668 -0.62328,1.540506 -0.36435,2.44334 0.51657,1.801222 0.37765,4.483565 -0.42486,8.203109 -0.91299,4.23161 -0.91068,5.10375 0.0168,6.358227 0.46354,0.62697 0.59517,1.059596 0.36556,1.201505 -0.7107,0.439243 -4.01364,-0.427025 -5.691,-1.492595 -0.51437,-0.326744 -1.57448,-0.484417 -3.05949,-0.455033 -2.38679,0.04728 -4.50527,-0.494684 -4.7398,-1.212452 -0.0763,-0.233709 0.0948,-0.42493 0.38043,-0.42493 0.28562,0 0.91003,-0.344192 1.3876,-0.764869 0.69127,-0.608929 1.00702,-1.448267 1.54869,-4.116747 1.25718,-6.193193 0.85409,-8.057693 -1.8517,-8.565302 -1.58802,-0.297912 -2.77615,0.478379 -3.58518,2.342443 -0.60624,1.396823 -0.85759,2.572079 -2.5567,11.954336 -0.47403,2.617562 -1.07847,5.830024 -1.34319,7.138811 -1.4458,7.148125 -2.24074,12.465755 -2.03081,13.584785 0.38671,2.06136 2.50437,3.14573 4.28362,2.1935 0.96831,-0.51822 1.8244,-2.64635 2.64253,-6.56899 0.89191,-4.276387 0.88216,-4.694418 -0.1378,-5.906574 -0.46222,-0.549301 -0.74267,-1.096457 -0.62323,-1.215882 0.64873,-0.648734 4.31173,0.07735 5.58281,1.106556 0.62684,0.507596 1.17076,0.595054 2.85811,0.459608 1.67747,-0.13465 2.4103,-0.01876 3.75728,0.593988 l 1.67334,0.761259 -1.0431,0.446168 c -1.58168,0.676541 -1.83348,1.162384 -2.88856,5.573397 -0.93978,3.92898 -2.08731,6.77172 -3.42301,8.47978 -0.41612,0.5321 -0.634,1.36616 -0.634,2.42694 0,1.04326 -0.21089,1.86685 -0.5949,2.32324 l -0.5949,0.70705 -1.00006,-0.74523 z M 29.658701,113.79357 c -0.142908,-0.43777 -0.251361,-1.55289 -0.241006,-2.47806 0.0132,-1.17772 -0.208692,-2.04413 -0.739948,-2.8895 -1.204337,-1.91644 -1.857974,-4.27312 -3.069155,-11.065785 -0.300041,-1.682723 -0.681277,-3.747874 -0.847191,-4.589229 -0.165912,-0.841368 -0.555521,-2.983005 -0.865801,-4.759212 -0.31028,-1.776207 -0.768555,-4.300285 -1.018389,-5.609072 -0.249834,-1.308774 -0.942054,-5.133134 -1.538267,-8.49858 -0.596211,-3.365434 -1.288345,-6.518113 -1.538078,-7.005935 -0.249733,-0.487836 -0.925958,-1.08244 -1.50273,-1.32134 -0.576771,-0.238914 -0.996055,-0.592241 -0.93174,-0.78517 0.234343,-0.703044 2.802237,-1.298946 5.177813,-1.201582 1.691402,0.06938 2.674549,-0.06064 3.399435,-0.44947 1.395817,-0.748681 4.793762,-1.41219 5.860709,-1.144394 l 0.875922,0.219833 -1.073698,0.980682 c -1.202418,1.09823 -1.364043,2.368422 -0.738846,5.806486 0.184167,1.012777 0.785698,4.747918 1.336739,8.300332 1.699238,10.954549 3.102756,19.908742 3.649969,23.286116 0.774179,4.7782 1.811582,6.11086 4.381653,5.62872 2.301386,-0.43176 3.026532,-2.67775 2.223478,-6.886772 C 42.288371,98.434326 41.899071,95.787984 41.594461,93.450874 41.289848,91.113763 40.894596,88.283743 40.716118,87.161923 40.537642,86.040116 39.770645,80.533034 39.011683,74.923962 38.252719,69.314902 37.465618,64.388393 37.262565,63.97617 37.059514,63.563946 36.380114,62.983115 35.752793,62.685434 35.125468,62.387753 34.6122,62.018276 34.6122,61.864379 c 0,-0.589516 3.109854,-1.135811 5.494482,-0.965199 1.945006,0.139172 2.727801,0.04034 3.945114,-0.498153 1.496326,-0.661903 5.231472,-1.004296 5.712134,-0.523643 0.13147,0.131476 -0.240883,0.687356 -0.827449,1.235295 -0.649526,0.606746 -1.066488,1.331079 -1.066488,1.852693 0,0.471055 0.927689,8.785032 2.06153,18.47552 1.725019,14.742998 2.027232,18.146221 1.851396,20.848518 -0.25196,3.87226 -0.249832,4.69218 0.01867,7.187 l 0.206396,1.91789 -2.153976,-0.16585 c -1.67384,-0.12886 -2.503687,-0.0141 -3.722849,0.51497 -2.648782,1.14944 -6.958619,1.87067 -9.696019,1.62262 -1.82364,-0.16525 -2.799554,-0.0847 -3.911151,0.32311 -2.596199,0.95233 -2.588571,0.95204 -2.865275,0.10446 z M 152.0469,112.3535 c -1.28214,-0.89804 -3.15022,-1.19801 -5.30233,-0.85143 -2.49043,0.40107 -6.72117,-0.1042 -9.25822,-1.10582 -1.31217,-0.51801 -2.3271,-0.65907 -4.12059,-0.5727 l -2.3796,0.1146 -0.106,-1.28262 c -0.0583,-0.70545 0.11422,-1.72393 0.38325,-2.2633 0.42046,-0.84285 0.42342,-1.2344 0.0209,-2.7858 -0.78185,-3.0141 -0.76508,-3.3358 1.75223,-33.611624 0.72484,-8.717695 0.707,-9.051403 -0.54663,-10.22247 -0.57514,-0.537262 -0.94855,-1.134051 -0.82979,-1.326196 0.38791,-0.62765 3.66063,-0.368 5.64362,0.447774 1.19891,0.493206 2.13836,0.686932 2.54957,0.525738 1.66734,-0.653578 6.94011,-0.108953 6.94011,0.716804 0,0.150389 -0.44707,0.429273 -0.99349,0.619761 -0.54642,0.190488 -1.14478,0.629012 -1.32968,0.974515 -0.39583,0.739609 -0.86218,4.065175 -1.58797,11.323565 -0.28978,2.898026 -0.67052,6.492929 -0.84612,7.988672 -0.17558,1.495755 -0.56017,5.090657 -0.85464,7.988671 -0.29445,2.898013 -0.68198,6.384439 -0.86118,7.7476 -0.7228,5.49879 -0.17372,7.28604 2.37044,7.71588 1.60431,0.27105 2.55191,-0.17047 3.24583,-1.51234 0.28987,-0.56056 0.95541,-4.554338 1.54201,-9.253369 0.56761,-4.546946 1.64606,-13.162354 2.39656,-19.145363 0.7505,-5.983008 1.27791,-11.22692 1.17204,-11.653148 -0.10587,-0.426215 -0.57087,-1.103948 -1.03333,-1.50606 -1.08667,-0.944835 -1.05952,-1.186343 0.16352,-1.454962 1.05177,-0.231011 4.91859,0.600541 5.66215,1.217629 0.26197,0.217431 1.32238,0.273861 2.74424,0.146034 2.49732,-0.224498 5.55999,0.354663 5.80385,1.097523 0.0767,0.233723 -0.10034,0.424931 -0.3934,0.424931 -0.29308,0 -0.98939,0.42069 -1.54734,0.934851 -0.92088,0.848602 -1.0625,1.279777 -1.53521,4.674221 -1.85461,13.31755 -4.90853,33.256663 -5.31078,34.674213 -0.21222,0.74789 -0.77394,2.12465 -1.24825,3.05949 -0.62754,1.23681 -0.87166,2.2738 -0.89638,3.80762 -0.0391,2.42045 -0.41379,3.04455 -1.40949,2.34713 z m -98.057926,-1.65371 c 0,-0.23547 0.301137,-0.61621 0.669193,-0.84606 1.328638,-0.82975 1.628975,-2.10954 2.014494,-8.58422 0.205955,-3.458889 0.531743,-8.354049 0.723978,-10.878127 0.985632,-12.941596 1.747649,-22.566596 1.9916,-25.155802 0.324291,-3.441957 0.101141,-4.205452 -1.506327,-5.153884 -0.669172,-0.394814 -1.092204,-0.833634 -0.940073,-0.975144 0.385166,-0.358287 3.653518,-1.01288 4.967552,-0.994905 0.598446,0.0077 1.852264,0.275891 2.786261,0.5949 1.683163,0.574895 1.713199,0.572505 3.396507,-0.269839 1.408295,-0.704727 2.187061,-0.849861 4.560121,-0.849861 3.009787,0 3.749197,0.383829 2.267269,1.176926 -1.643959,0.879823 -1.625705,1.7303 0.194447,9.058456 1.659842,6.682737 6.306518,26.872329 7.776215,33.78729 0.890371,4.18926 1.368467,5.25131 2.739095,6.08484 0.779246,0.4739 0.912457,0.69603 0.578403,0.96452 -0.738056,0.59318 -3.067741,0.69172 -4.955058,0.20961 -1.557968,-0.398 -1.934792,-0.39127 -2.787651,0.0497 -0.992853,0.51343 -5.113661,0.72219 -5.554455,0.28139 -0.12572,-0.12579 0.252085,-0.62985 0.839558,-1.12029 1.288641,-1.07581 1.386629,-2.37116 0.464125,-6.13552 l -0.604004,-2.464692 -3.776629,0.236754 c -2.077147,0.130217 -3.878837,0.341838 -4.003759,0.470288 -0.124924,0.12848 -0.335,1.78962 -0.466844,3.69149 -0.233001,3.36109 -0.216574,3.4811 0.586389,4.28406 0.454354,0.45435 1.046872,0.91354 1.316702,1.02041 0.421837,0.16708 0.423155,0.24137 0.0094,0.52998 -0.844671,0.58923 -3.443803,0.79989 -5.076453,0.41145 -1.381305,-0.32865 -1.751425,-0.28894 -2.927854,0.31408 -1.567136,0.80331 -5.282218,0.98767 -5.282218,0.26214 z M 71.64944,92.788444 c 0.423161,-0.267707 0.357956,-0.90755 -0.458466,-4.499048 -2.075187,-9.128889 -3.364014,-14.397342 -3.581687,-14.641176 -0.125643,-0.140753 -0.496178,3.760093 -0.823395,8.66855 -0.327219,4.908469 -0.659506,9.345151 -0.738421,9.859326 l -0.14348,0.934839 2.626064,-0.0051 c 1.444334,-0.0026 2.848056,-0.145647 3.119385,-0.317287 z m 51.55311,16.419186 c -1.23523,-0.66896 -2.75099,-0.7073 -5.94548,-0.1504 -2.70798,0.47208 -5.17103,0.30977 -8.13958,-0.5364 -1.03677,-0.29553 -2.41844,-0.4388 -3.22946,-0.33487 -3.43443,0.44009 -3.10618,0.56329 -3.22023,-1.20858 -0.0582,-0.90388 0.1015,-1.99129 0.36662,-2.49738 0.38283,-0.73064 0.39396,-1.18894 0.0601,-2.47835 -0.22523,-0.87006 -0.52355,-2.87435 -0.66294,-4.453969 -0.22417,-2.540241 -0.36676,-2.985356 -1.23432,-3.852922 -0.53949,-0.539498 -0.9067,-1.100915 -0.81604,-1.247617 0.3957,-0.640254 2.94163,-0.689899 4.71295,-0.09186 1.60221,0.540899 1.94826,0.557062 2.97315,0.138852 1.1686,-0.476838 4.48288,-0.425265 4.98572,0.0776 0.14011,0.14011 -0.15559,0.553631 -0.6571,0.918959 -1.64011,1.194733 -1.95484,3.633165 -0.90562,7.016687 0.52931,1.70694 2.23825,2.27335 4.18412,1.38675 1.1558,-0.52662 1.67216,-2.399073 1.67864,-6.087218 0.006,-4.02383 -0.87722,-5.776087 -4.81766,-9.546498 -6.52934,-6.247591 -7.80835,-7.677601 -8.96353,-10.02183 -1.02621,-2.082445 -1.15186,-2.658663 -1.2484,-5.724398 -0.0762,-2.418813 0.061,-4.050605 0.47225,-5.61849 0.60424,-2.303654 0.66114,-3.333429 0.30995,-5.60906 -0.13897,-0.900444 -0.0556,-1.56714 0.24681,-1.973621 0.41088,-0.552269 0.61559,-0.571336 2.041,-0.190102 1.24741,0.33363 2.40207,0.338628 5.42981,0.02351 3.94399,-0.410476 8.27389,-0.162646 10.24155,0.586202 1.24689,0.474537 4.50285,0.467997 5.39757,-0.01028 0.53757,-0.287711 0.77336,-0.267925 1.01252,0.08505 0.45349,0.669189 0.1227,3.654237 -0.47078,4.247685 -0.43992,0.439911 -0.44695,0.764432 -0.0528,2.439202 0.25006,1.062474 0.45705,2.801421 0.45996,3.864319 0.006,2.276492 0.44976,3.638124 1.43143,4.394758 0.43951,0.338744 0.60992,0.712333 0.44595,0.977649 -0.36368,0.588437 -4.11134,0.269659 -5.54488,-0.471659 -0.81118,-0.41947 -1.26109,-0.474769 -1.74701,-0.214707 -0.82915,0.443753 -5.12089,0.44911 -5.79831,0.0077 -0.42452,-0.276906 -0.32926,-0.476003 0.56882,-1.188824 1.27087,-1.008716 1.62435,-2.28582 1.31591,-4.754381 -0.29869,-2.390674 -0.75002,-2.924507 -2.65405,-3.139111 -1.42121,-0.160192 -1.68066,-0.07503 -2.61388,0.858212 -0.98237,0.982365 -1.03606,1.177221 -1.03606,3.759631 0,1.497965 0.16085,3.14664 0.35745,3.663744 0.1966,0.517091 2.62534,3.242347 5.39719,6.056114 6.61514,6.715178 8.39312,9.507862 9.0204,14.168348 0.29009,2.155269 -0.37324,7.137632 -1.30909,9.832925 -0.48315,1.39146 -0.67645,2.47645 -0.5148,2.88952 0.49112,1.25492 0.25087,4.59375 -0.32791,4.55717 -0.11846,-0.008 -0.65845,-0.2536 -1.20005,-0.54692 z M 90.872833,88.571043 c -0.560904,-0.256503 -1.281704,-0.760579 -1.601766,-1.12015 -0.811226,-0.911391 -1.62835,-2.975206 -1.624264,-4.102408 0.0064,-1.794695 4.011611,-11.993922 4.709862,-11.993922 0.157995,0 0.933593,1.391106 1.723555,3.091354 3.218539,6.927226 3.701325,9.318645 2.397317,11.874715 -1.147362,2.24901 -3.522413,3.202646 -5.604704,2.250411 z"
       id="path3746"
       inkscape:connector-curvature="0"
       inkscape:export-xdpi="299"
       inkscape:export-ydpi="299" />
  </g>
</svg>
