<?xml version="1.0" encoding="UTF-8" standalone="no"?>
<!-- Created with Inkscape (http://www.inkscape.org/) -->

<svg
   xmlns:dc="http://purl.org/dc/elements/1.1/"
   xmlns:cc="http://creativecommons.org/ns#"
   xmlns:rdf="http://www.w3.org/1999/02/22-rdf-syntax-ns#"
   xmlns:svg="http://www.w3.org/2000/svg"
   xmlns="http://www.w3.org/2000/svg"
   xmlns:sodipodi="http://sodipodi.sourceforge.net/DTD/sodipodi-0.dtd"
   xmlns:inkscape="http://www.inkscape.org/namespaces/inkscape"
   width="210mm"
   height="297mm"
   viewBox="0 0 210 297"
   version="1.1"
   id="svg8"
   inkscape:version="0.92.5 (2060ec1f9f, 2020-04-08)"
   sodipodi:docname="cachitasnow.svg">
  <defs
     id="defs2" />
  <sodipodi:namedview
     id="base"
     pagecolor="#ffffff"
     bordercolor="#666666"
     borderopacity="1.0"
     inkscape:pageopacity="0.0"
     inkscape:pageshadow="2"
     inkscape:zoom="0.35"
     inkscape:cx="143.84593"
     inkscape:cy="642.02246"
     inkscape:document-units="mm"
     inkscape:current-layer="layer1"
     showgrid="false"
     inkscape:window-width="1366"
     inkscape:window-height="704"
     inkscape:window-x="0"
     inkscape:window-y="27"
     inkscape:window-maximized="1" />
  <metadata
     id="metadata5">
    <rdf:RDF>
      <cc:Work
         rdf:about="">
        <dc:format>image/svg+xml</dc:format>
        <dc:type
           rdf:resource="http://purl.org/dc/dcmitype/StillImage" />
        <dc:title />
      </cc:Work>
    </rdf:RDF>
  </metadata>
  <g
     inkscape:label="Layer 1"
     inkscape:groupmode="layer"
     id="layer1">
    <path
       style="fill:#060226;stroke-width:1.30647421;fill-opacity:1"
       d="m 98.338713,186.99049 c -23.628792,-4.23965 -38.208232,-6.76458 -44.092442,-7.63616 -8.33008,-1.23384 -9.52515,-2.21552 -5.83966,-4.79693 1.55235,-1.08731 3.53849,-4.36681 4.41363,-7.28778 l 1.59117,-5.31086 1.7341,5.94711 c 2.04643,7.01827 2.99931,7.81401 7.36816,6.15297 2.77972,-1.05685 3.99615,-3.5355 7.94849,-16.19628 5.71262,-18.2996 5.93578,-21.76883 1.4003,-21.76883 -3.19441,0 -8.49208,4.02209 -8.49208,6.44732 0,0.67179 -0.65185,2.87647 -1.44857,4.89928 l -1.44856,3.67786 -1.85716,-6.20576 c -2.02536,-6.76785 -4.91352,-8.06819 -8.67885,-3.90754 -2.24167,2.47701 -6.78813,18.03049 -8.194,28.03168 l -0.86592,6.16012 -5.01434,-2.55813 c -2.75789,-1.40696 -5.4868,-3.36957 -6.06425,-4.36134 -0.57746,-0.99178 -3.98949,-3.28406 -7.58229,-5.09397 -3.70193,-1.86487 -12.41506,-9.01276 -20.1090097,-16.4966 -13.3835803,-13.01807 -15.0283803,-15.45492 -7.32695,-10.85521 14.3198497,8.55262 16.7251797,9.70651 15.9336297,7.64375 -0.68932,-1.79635 -0.43272,-1.88014 1.6927,-0.5528 1.37785,0.86048 2.95207,1.11763 3.49825,0.57145 1.29566,-1.29566 -1.10933,-5.08723 -4.27954,-6.74687 -5.3324197,-2.7916 -8.6000497,-5.72884 -7.8047597,-7.01565 0.4573,-0.73993 -0.36083,-1.98342 -1.81808,-2.76332 -1.45724,-0.7799 -2.64954004,-2.01346 -2.64954004,-2.74126 0,-0.72781 2.49863004,0.38498 5.55252004,2.47286 3.0538796,2.08786 8.4198397,5.05567 11.9243397,6.59513 7.51611,3.30166 12.35964,3.77235 7.34615,0.7139 -3.25268,-1.98429 -3.24728,-1.98893 1.30648,-1.12187 2.51496,0.47885 6.04244,1.12708 7.83884,1.44049 l 3.26619,0.56983 -2.93957,-2.17397 c -6.26859,-4.63599 -3.08429,-5.01002 20.57697,-2.41697 20.43963,2.23999 37.83091,2.20659 53.147469,-0.10203 7.05621,-1.06358 16.85438,-1.93724 21.77372,-1.94148 4.91933,-0.004 12.14829,-0.93914 16.06434,-2.07756 5.48456,-1.59441 7.54331,-1.71863 8.96254,-0.54077 1.01336,0.84101 2.39367,1.18844 3.06737,0.77206 1.95178,-1.20626 10.41603,2.88373 11.96759,5.78284 0.7777,1.45315 0.96056,3.36484 0.40634,4.2482 -0.55421,0.88334 -0.8569,2.52571 -0.67265,3.6497 0.18426,1.124 -1.15232,2.83962 -2.97021,3.81252 -5.32812,2.85153 -3.00374,2.87641 5.9691,0.0639 4.59754,-1.44108 8.50613,-2.62772 8.68577,-2.637 0.17964,-0.009 0.32662,0.86502 0.32662,1.94286 0,1.07784 0.58552,1.95971 1.30114,1.95971 3.06014,0 -4.03037,13.52833 -10.35191,19.75095 -3.6448,3.58776 -6.62692,7.00308 -6.62692,7.58959 0,0.58652 -6.02611,3.73924 -13.39136,7.00602 -17.58234,7.79852 -37.37563,10.48558 -54.545297,7.40488 z m -2.887052,-14.93856 c 8.981479,-7.55742 13.504519,-29.83035 7.315939,-36.02616 -2.34561,-2.34835 -3.662977,-2.62403 -8.834009,-1.84858 -7.82521,1.17346 -12.15562,4.67071 -15.99616,12.91854 -4.37734,9.40064 -4.33646,20.55742 0.0916,24.98542 4.41083,4.41084 12.16142,4.39784 17.42269,-0.0293 z m -10.32814,-4.92944 c -0.48647,-5.28061 5.62283,-20.57696 8.21837,-20.57696 1.62662,0 -0.172,10.24282 -2.92504,16.65754 -2.29111,5.33839 -4.97925,7.32881 -5.29333,3.91942 z m 69.157829,1.80999 c 0.35606,-2.37944 -0.23011,-2.78984 -3.98475,-2.78984 -7.15228,0 -10.41346,5.50125 -4.5982,7.75667 3.6792,1.42695 8.00035,-1.07364 8.58295,-4.96683 z m -37.17496,1.03476 c 1.89331,-1.48928 3.44238,-2.09787 3.44238,-1.35244 0,0.74542 1.17583,1.98461 2.61295,2.75374 3.66492,1.96141 6.88529,-0.0814 10.76616,-6.82917 5.20319,-9.04702 13.13871,-29.46865 12.30018,-31.65383 -1.75853,-4.58263 -12.65724,-0.61429 -14.92101,5.43291 -0.75243,2.00993 -1.75663,4.83024 -2.23159,6.26736 -0.80223,2.42734 -0.95474,2.45055 -2.1471,0.32662 -1.75433,-3.12494 -5.8196,-2.87429 -8.18637,0.50473 -1.86209,2.65852 -1.97418,2.48846 -2.3604,-3.58104 -0.47246,-7.42486 -3.50742,-9.20154 -6.89266,-4.03501 -2.83049,4.31987 -3.2743,31.96117 -0.54097,33.69239 2.74613,1.73932 4.40033,1.42986 8.15843,-1.52626 z m 39.16981,-11.99006 c 1.08636,-3.05389 2.85316,-8.19813 3.92623,-11.43165 1.07306,-3.23353 2.71258,-7.78774 3.64339,-10.12049 1.457,-3.65141 1.40142,-4.5323 -0.39956,-6.33329 -2.51288,-2.51287 -6.13163,-1.04089 -9.28951,3.77862 -2.94827,4.49963 -9.21511,25.34747 -8.32035,27.67919 0.44118,1.14971 2.37545,1.98013 4.61222,1.98013 3.35138,0 4.10924,-0.72209 5.82758,-5.55251 z M -6.5058487,142.47574 c -1.97604,-1.47429 -3.5928003,-3.24685 -3.5928003,-3.93902 0,-1.57263 6.1803403,2.8468 7.0890803,5.06924 0.85316,2.08652 0.78622,2.06488 -3.49628,-1.13022 z m 185.6188387,-10.54271 -4.79978,-1.27771 -0.42611,-10.01891 c -0.23437,-5.51041 0.001,-14.13432 0.52441,-19.16424 0.52279,-5.029933 1.34896,-13.185393 1.83593,-18.123265 0.48697,-4.93786 2.41379,-13.11852 4.28184,-18.17923 3.07662,-8.33494 4.09642,-9.67941 10.83077,-14.27903 l 7.43434,-5.07772 6.59584,2.83745 c 5.60591,2.41161 6.78141,3.54911 7.83235,7.57927 2.67986,10.27666 3.93497,21.32743 4.78457,42.126752 l 0.88669,21.707253 -3.914,4.09561 c -8.44384,8.83566 -12.29826,3.83489 -13.14637,-17.05622 l -0.56699,-13.966253 -6.71714,0.75794 c -3.69444,0.41686 -6.89223,0.89963 -7.1062,1.07282 -0.73092,0.59155 -0.52666,32.153893 0.21289,32.893423 0.91243,0.91243 -1.52472,5.67053 -2.80937,5.48479 -0.51364,-0.0742 -3.09379,-0.70999 -5.73367,-1.41273 z m 23.47938,-63.449345 c 0.29562,-6.20604 -0.0376,-8.16546 -1.38866,-8.16546 -3.67788,0 -11.41181,10.73112 -11.41181,15.83432 0,0.72744 2.71443,1.11883 6.20576,0.89481 l 6.20575,-0.3982 z M -33.615189,128.30414 c -17.9819,-6.20216 -24.04707,-26.21278 -15.59807,-51.462275 6.52907,-19.51187 15.60504,-31.03306 28.38456,-36.03185 9.72285,-3.80315 11.4909203,-3.51421 15.2863203,2.49808 4.48484,7.10445 4.37948,10.59391 -0.31023,10.27477 -6.4384803,-0.43814 -12.2746403,2.47489 -21.8259803,10.8941 -2.18729,1.92804 -4.48688,3.5028 -5.11019,3.49949 -3.11035,-0.0165 -13.35018,25.106252 -12.24064,30.031632 0.26732,1.18668 1.2807,-1.24973 2.25196,-5.41426 1.89447,-8.123082 4.98998,-12.393992 3.46821,-4.78513 -2.4304,12.15196 -2.46977,17.832073 -0.14816,21.375293 4.73416,7.22524 14.50084,9.4527 19.76459,4.50767 2.93887,-2.76092 3.08018,-2.76891 8.99954,-0.50828 6.9371403,2.64932 8.0388003,4.49022 5.8497503,9.77506 -3.10527,7.49677 -15.7328103,9.84294 -28.7716603,5.3457 z m 57.92201,-4.06265 c -3.88254,-1.43625 -4.61816,-4.15366 -5.34244,-19.7351 l -0.64844,-13.949943 -3.37789,1.28427 c -1.85784,0.70635 -4.72364,0.94651 -6.3684501,0.53369 -2.8421796,-0.71334 -3.0004396,-0.37661 -3.1895596,6.78654 -0.10944,4.145413 -0.33558,8.125033 -0.50253,8.843593 -0.16695,0.71856 -0.37136,2.07685 -0.45424,3.01843 -0.10218,1.16075 -1.72816,1.5814 -5.04998004,1.30647 -4.88375996,-0.4042 -4.90072996,-0.42618 -5.35531996,-6.93785 -0.66318,-9.499693 2.32212,-35.233695 5.22202996,-45.015115 C 1.9576713,51.209735 3.6759713,48.742035 11.150961,43.270735 l 4.91869,-3.60022 4.98168,2.40688 c 2.73992,1.32379 5.64779,3.20951 6.46195,4.1905 3.43793,4.14247 6.02206,29.15103 6.11739,59.202995 0.0344,10.81724 -0.2501,12.17919 -3.29982,15.80101 -2.57787,3.06144 -3.94884,3.73726 -6.02403,2.96959 z m -7.30765,-58.044135 0.3151,-13.06474 -2.58938,3.06942 c -2.95309,3.50056 -6.5329001,14.52224 -6.5329001,20.11378 0,3.46077 0.34317,3.73199 4.2460401,3.35568 l 4.24604,-0.4094 z m 59.64444,54.844255 c -1.88428,-2.87577 -2.06919,-6.48265 -1.45674,-28.415823 0.38582,-13.817082 1.30486,-27.179652 2.04232,-29.694612 0.73747,-2.51497 1.52642,-6.92432 1.75324,-9.79856 0.46487,-5.89084 1.88561,-7.53791 5.04404,-5.84757 1.66848,0.89294 2.33566,3.87503 2.93432,13.1157 0.42618,6.57799 1.02437,12.20948 1.32931,12.51443 0.30495,0.30495 2.951,0.17122 5.88013,-0.29716 5.292672,-0.84633 5.330942,-0.89369 6.174119,-7.64237 0.46665,-3.73492 0.94118,-9.8376 1.0545,-13.56151 0.19434,-6.38614 0.40105,-6.77084 3.63888,-6.77218 1.88805,-7.8e-4 4.0694,0.76559 4.84741,1.70305 2.28691,2.75556 3.23306,21.16152 2.20994,42.991682 -0.93186,19.883653 -1.02239,20.358853 -4.1498,21.783793 -8.843417,4.02933 -11.503609,-0.15916 -10.530039,-16.579633 l 0.643352,-10.850752 -4.105992,0.39895 -4.10597,0.39895 -0.65324,16.330935 c -0.59801,14.95023 -0.92168,16.63468 -3.82842,19.92373 -3.93683,4.45466 -5.95314,4.52377 -8.72136,0.29895 z m 50.182079,0.36606 c -1.72336,-3.05209 -2.35882,-30.703313 -1.05102,-45.733805 0.55912,-6.42591 1.02972,-7.50543 3.26618,-7.49222 5.43695,0.0321 7.35358,3.96457 10.49462,21.532252 2.27093,12.701183 2.39156,19.740743 0.43881,25.607913 -1.83321,5.50801 -3.42641,7.15506 -7.94159,8.20999 -2.80935,0.65637 -3.8847,0.2177 -5.207,-2.12413 z m 99.29427,-1.17918 c -4.55403,-1.6663 -3.5491,-4.37847 2.82773,-7.63168 11.93674,-6.08967 12.19375,-16.138513 0.83508,-32.651105 -2.58601,-3.7594 -4.40362,-7.31781 -4.03911,-7.90758 0.84436,-1.3662 -2.04232,-7.80048 -3.49962,-7.80048 -1.867,0 -1.20778,-11.4279 0.97373,-16.88005 1.13878,-2.84607 3.4192,-6.05837 5.06763,-7.13847 4.22728,-2.76981 15.63041,-2.48227 19.2968,0.4866 l 2.89791,2.34659 -4.60224,1.92293 c -5.79269,2.42035 -11.31856,8.897 -12.36921,14.49751 -0.92275,4.91865 3.61197,13.71651 12.50765,24.26626 5.4452,6.457692 10.40578,18.649195 10.40578,25.574035 0,4.27067 -3.255,8.45596 -6.63524,8.53159 -1.02126,0.0229 -2.99806,0.90473 -4.39288,1.95971 -2.87872,2.17736 -13.82416,2.41822 -19.27401,0.42414 z m -172.130109,-6.0182 c -15.13452,-10.73463 -20.64667,-27.984655 -14.42,-45.126735 3.53588,-9.7343 6.13787,-13.25636 13.83773,-18.73076 7.28773,-5.18138 12.04568,-6.49577 14.52805,-4.0134 1.59701,1.597 0.9242,2.90714 -4.90324,9.548 -9.81678,11.18704 -12.19229,16.4525 -11.93367,26.4517 0.27799,10.747902 2.875,16.072252 12.44853,25.521855 7.29933,7.20485 7.64133,7.80849 5.36642,9.47193 -3.91119,2.85995 -7.56788,2.09484 -14.92382,-3.12259 z m -8.52051,-13.30851 c -1.09118,-2.110123 -2.63471,-4.238773 -3.43008,-4.730333 -1.50991,-0.93317 0.58135,3.79419 3.06733,6.933813 2.24576,2.83625 2.42038,1.77554 0.36275,-2.20348 z m 102.399159,9.38909 c -0.6382,-41.251785 0.29921,-54.413365 4.68907,-65.836155 0.6307,-1.64111 -0.56278,-2.67535 -5.07637,-4.39911 -3.2455,-1.23947 -6.95854,-3.44637 -8.25121,-4.90423 -2.34737,-2.64735 -2.33646,-2.6494 8.75474,-1.64191 6.10777,0.55482 16.05663,1.38554 22.10859,1.84606 6.91111,0.52591 11.20326,1.43644 11.54051,2.44821 0.29535,0.886 1.34174,1.6109 2.32535,1.6109 2.23816,0 1.7393,8.16627 -0.67667,11.07735 -2.10171,2.5324 -9.21402,2.54924 -15.22893,0.0361 l -4.67022,-1.95135 0.95677,3.58444 c 1.18955,4.45658 1.18654,4.58738 -0.31328,13.56807 -0.67702,4.05388 -0.88699,9.93301 -0.46661,13.06475 0.67764,5.04809 -0.93763,22.899835 -3.14544,34.763115 -0.75125,4.03671 -1.07714,4.24604 -6.61013,4.24604 h -5.81994 l -0.11628,-7.51222 z M 127.24307,60.620785 c -0.68006,-1.2707 -1.63736,-4.44724 -2.12732,-7.05895 -0.78499,-4.18438 -0.53676,-4.86097 2.08927,-5.69443 3.3412,-1.06046 7.1431,2.53181 8.53066,8.06033 1.4608,5.82026 -5.75524,9.80788 -8.49261,4.69305 z"
       id="path54"
       inkscape:connector-curvature="0"
       inkscape:export-xdpi="299"
       inkscape:export-ydpi="299" />
  </g>
</svg>
