<?xml version="1.0" encoding="UTF-8" standalone="no"?>
<!-- Created with Inkscape (http://www.inkscape.org/) -->

<svg
   xmlns:dc="http://purl.org/dc/elements/1.1/"
   xmlns:cc="http://creativecommons.org/ns#"
   xmlns:rdf="http://www.w3.org/1999/02/22-rdf-syntax-ns#"
   xmlns:svg="http://www.w3.org/2000/svg"
   xmlns="http://www.w3.org/2000/svg"
   xmlns:sodipodi="http://sodipodi.sourceforge.net/DTD/sodipodi-0.dtd"
   xmlns:inkscape="http://www.inkscape.org/namespaces/inkscape"
   width="210mm"
   height="297mm"
   viewBox="0 0 210 297"
   version="1.1"
   id="svg8"
   inkscape:version="0.92.5 (2060ec1f9f, 2020-04-08)"
   sodipodi:docname="cachitasnow.svg">
  <defs
     id="defs2" />
  <sodipodi:namedview
     id="base"
     pagecolor="#ffffff"
     bordercolor="#666666"
     borderopacity="1.0"
     inkscape:pageopacity="0.0"
     inkscape:pageshadow="2"
     inkscape:zoom="0.7"
     inkscape:cx="350.48105"
     inkscape:cy="663.213"
     inkscape:document-units="mm"
     inkscape:current-layer="layer1"
     showgrid="false"
     inkscape:window-width="1366"
     inkscape:window-height="704"
     inkscape:window-x="0"
     inkscape:window-y="27"
     inkscape:window-maximized="1" />
  <metadata
     id="metadata5">
    <rdf:RDF>
      <cc:Work
         rdf:about="">
        <dc:format>image/svg+xml</dc:format>
        <dc:type
           rdf:resource="http://purl.org/dc/dcmitype/StillImage" />
        <dc:title></dc:title>
      </cc:Work>
    </rdf:RDF>
  </metadata>
  <g
     inkscape:label="Layer 1"
     inkscape:groupmode="layer"
     id="layer1">
    <path
       style="fill:#e3e3f9;stroke-width:0.75595236;fill-opacity:1"
       d="m 101.67558,185.36544 c -1.24732,-0.15565 -4.649112,-0.78722 -7.559522,-1.40349 -6.79731,-1.4393 -22.77352,-4.10526 -29.10417,-4.85664 -10.14786,-1.20443 -30.630404,-13.57228 -43.561114,-26.30323 -2.77834,-2.73542 -4.6415,-3.96875 -5.99549,-3.96875 -2.54767,0 -6.3838804,-3.79952 -6.3838804,-6.32283 0,-2.57509 -1.17658,-3.14656 -5.87682,-2.85437 -7.8931,0.49065 -18.6306996,-3.38422 -22.4309396,-8.09465 l -2.22742,-2.76089 2.60539,2.37222 c 3.55055,3.23278 6.49109,4.60517 13.7248096,6.40554 4.33437002,1.07876 7.23727,1.38411 9.80339,1.03117 2.57621,-0.35432 3.64564,-0.24036 3.64564,0.38849 0,1.02778 1.8679604,0.60939 1.9333504,-0.43303 0.0677,-1.07939 6.60913,-7.52339 7.38664,-7.27663 0.38468,0.12209 0.438,-0.3823 0.11987,-1.13393 -0.62041,-1.46582 -0.61196,-4.50595 0.0153,-5.52093 0.21423,-0.34665 1.38265,-0.8484 2.59647,-1.115 3.16424,-0.69498 3.56232,-1.53815 4.08495,-8.65221 0.25758,-3.50614 0.78699,-6.69347 1.17648,-7.08295 1.1685,-1.16851 6.77502,-1.94111 7.16818,-0.98782 0.19019,0.46113 0.37264,-0.11397 0.40547,-1.278 l 0.0597,-2.1164 -4.7247,0.49987 c -5.38047,0.56927 -6.61146,1.60637 -6.62116,5.57832 -0.004,1.47969 -0.22436,4.50396 -0.49056,6.7206 -0.55989,4.66237 -2.19404,5.84261 -6.41388,4.63238 -1.59559,-0.45761 -2.7439,-0.44404 -3.22606,0.0381 -0.41175,0.41175 -1.10583,0.74343 -1.54239,0.73707 -0.4365604,-0.006 -0.3452604,-0.29597 0.2029,-0.64354 0.705,-0.44703 1.06573,-3.15351 1.23272,-9.24884 0.3857,-14.07844 3.49507,-33.669599 5.81946,-36.666565 0.35635,-0.45946 1.09428,-2.124695 1.63984,-3.700515 0.97079,-2.804047 0.93449,-2.926201 -1.70254,-5.729893 -4.29863,-4.570268 -7.0674,-8.255007 -6.20297,-8.255007 0.439,0 1.74817,1.238477 2.90927,2.752173 1.16111,1.513689 3.0029,3.792228 4.09287,5.063407 l 1.98177,2.311233 3.68787,-3.272223 c 5.485,-4.866798 7.43498,-5.514733 10.65445,-3.540208 6.22675,3.81889 6.91007,4.850675 8.5689,12.938594 0.85275,4.157738 1.65988,10.621131 1.79363,14.363095 0.13374,3.741964 0.50767,13.270139 0.83094,21.173719 0.64112,15.67416 0.43361,16.8395 -3.68327,20.6851 -1.91095,1.78503 -3.90026,1.84636 -6.43013,0.19824 -1.4153,-0.922 -2.2733,-6.14248 -2.43497,-14.81546 -0.15025,-8.06076 -0.4056,-8.47372 -4.57454,-7.39823 l -2.54904,0.6576 -0.75595,7.1108 c -0.79794,7.50572 -1.06361,7.93039 -5.85863,9.3647 -0.85887,0.25691 -1.32292,1.15328 -1.32292,2.55537 0,1.86119 0.77089,2.64798 5.57832,5.69336 3.06808,1.94355 5.99215,3.53373 6.49795,3.53373 0.50579,0 1.90732,0.58344 3.1145,1.29655 2.00444,1.18405 2.29897,1.19245 3.39453,0.0969 0.97662,-0.97663 1.75473,-1.05875 4.18551,-0.44175 1.64223,0.41684 3.17781,0.56596 3.4124,0.33137 0.83282,-0.83283 -0.49957,-1.87428 -2.99741,-2.34288 -1.39331,-0.26138 -3.33551,-1.32917 -4.31601,-2.37286 l -1.78272,-1.89763 3.36271,1.66094 c 1.8495,0.91351 4.00636,1.9758 4.79302,2.36064 1.24031,0.60676 1.36918,0.466 0.97021,-1.05967 -0.33511,-1.28145 0.0874,-2.33079 1.55529,-3.86296 2.16997,-2.26497 3.10756,-7.28908 3.18693,-17.07718 0.0416,-5.12886 0.81183,-5.73505 2.989064,-2.35242 1.11464,1.73174 1.10735,1.78341 -0.11534,0.81837 -1.746404,-1.37838 -1.915864,-0.75375 -2.249464,8.29174 -0.24311,6.59164 -0.45685,7.48631 -2.31651,9.69639 -3.26988,3.88603 -2.87595,4.20726 5.321844,4.3398 4.0538,0.0655 9.07143,0.53675 11.1503,1.04716 2.07887,0.5104 4.97039,1.05557 6.4256,1.2115 3.97207,0.4256 32.667362,0.24546 33.403832,-0.2097 0.67192,-0.41527 9.7849,-1.59812 17.83044,-2.31436 4.16631,-0.37089 4.62602,-0.56436 3.77976,-1.59069 -0.8501,-1.031 -0.76086,-1.06051 0.75863,-0.25081 0.94713,0.5047 1.52237,1.24076 1.2783,1.63567 -0.24407,0.39491 0.5118,0.71281 1.67971,0.70645 1.3891,-0.008 1.78738,-0.22484 1.15161,-0.62823 -0.65748,-0.41717 0.0151,-0.91233 2.07901,-1.53071 6.69988,-2.00733 8.45944,-12.79016 5.08568,-31.16573 -2.18346,-11.892381 -3.98637,-16.06963 -7.70003,-17.840554 -2.95362,-1.408476 -4.40846,-3.671676 -1.83525,-2.854975 2.59511,0.823663 4.9801,-0.230626 5.97942,-2.643211 0.78598,-1.897523 0.73029,-2.789592 -0.34273,-5.49027 -0.70466,-1.773547 -1.99365,-3.99003 -2.86442,-4.925521 -0.87077,-0.935491 -1.20844,-1.700893 -0.75037,-1.700893 1.28524,0 3.87244,3.668705 4.82182,6.837446 1.00613,3.358174 0.44242,6.227807 -1.6306,8.300833 -1.61626,1.616256 -1.95154,3.004578 -0.72561,3.004578 3.5628,0 8.01675,20.796867 7.39004,34.506437 -0.37848,8.27938 -1.7243,12.05808 -5.02383,14.10554 -2.70968,1.68143 -0.9253,1.5888 5.81211,-0.30171 4.42234,-1.24092 6.03175,-1.40413 7.45432,-0.75596 0.99787,0.45466 2.63903,0.82665 3.64705,0.82665 1.00802,0 3.71501,0.83241 6.01553,1.84982 4.45895,1.97195 6.19085,4.46861 5.20991,7.51044 -0.28398,0.88058 -0.59583,2.56912 -0.69301,3.75233 -0.16253,1.97879 -0.0166,2.10938 1.81997,1.6287 4.48404,-1.17361 7.05082,-0.82696 8.54029,1.15335 1.42089,1.88914 1.41593,1.96583 -0.46443,7.18155 -1.52684,4.2351 -2.70167,6.01543 -5.97323,9.05178 -2.23992,2.07887 -5.13356,5.18621 -6.43033,6.90521 -2.0264,2.6862 -3.82653,3.77111 -12.80887,7.71968 -9.31621,4.09533 -11.41435,4.7205 -19.32116,5.75699 -8.09059,1.06059 -20.10072,1.36465 -25.80154,0.65321 z M 60.261648,172.59745 c 3.93688,-5.58333 3.59163,-5.4403 5.19648,-2.15287 1.09534,2.24372 1.95699,3.01605 3.57137,3.20112 3.77808,0.4331 5.40636,-1.45242 8.16554,-9.45554 l 2.55792,-7.41933 0.37798,5.70853 c 0.42248,6.38062 1.70041,9.00365 5.52172,11.33366 6.31046,3.84773 13.75115,-0.0218 18.597772,-9.67166 0.88749,-1.76704 1.89963,-3.21279 2.24921,-3.21279 0.34958,0 0.82708,2.11178 1.06112,4.69284 0.45201,4.98483 1.63719,6.64644 4.74069,6.64644 0.9039,0 2.5135,-0.68439 3.5769,-1.52085 l 1.93345,-1.52085 2.63255,1.55324 c 3.34301,1.97242 5.97804,1.38889 8.46766,-1.87516 2.73492,-3.58568 13.20702,-26.3933 13.20702,-28.76414 0,-1.47273 -2.65993,-3.402 -4.69042,-3.402 -4.41971,0 -8.20881,3.04405 -9.94269,7.98763 -0.85611,2.44092 -1.36551,2.94127 -2.84332,2.79277 -3.18167,-0.31971 -4.79012,-0.3391 -6.31939,-0.0762 -1.24435,0.21394 -1.57031,-0.28451 -1.9427,-2.97074 -0.24611,-1.7753 -0.82402,-3.60437 -1.28425,-4.06459 -1.41391,-1.41391 -4.61096,-0.0389 -5.95564,2.56142 l -1.25591,2.42865 -1.21468,-1.87264 c -2.53516,-3.90836 -4.60782,-5.45272 -6.740202,-5.02218 -9.43516,1.90502 -11.1643,2.8423 -14.73901,7.98922 l -2.41405,3.4758 -0.20406,-2.64584 c -0.39398,-5.10818 -0.84007,-6.04762 -2.87169,-6.04762 -3.46225,0 -6.15279,2.01695 -7.54162,5.65354 -0.71791,1.87985 -1.57377,3.41789 -1.9019,3.41789 -0.32814,0 -1.39262,-1.44576 -2.36551,-3.2128 -2.83205,-5.14379 -6.01742,-4.75971 -8.99922,1.08509 -1.54764,3.03365 -4.7282,15.69479 -5.57947,22.21077 -0.45863,3.51052 -0.35413,3.89688 1.25238,4.63051 2.09472,0.95658 3.80796,0.21626 5.69597,-2.46135 z m -4.68865,-0.31258 c -0.25118,-0.40643 0.088,-3.37609 0.75379,-6.59926 2.29756,-11.12321 3.96423,-16.25479 5.9119,-18.20247 l 1.90113,-1.90111 1.56714,2.57058 c 0.86192,1.41383 1.56841,3.15394 1.56996,3.86692 0.002,1.13376 2.0532,2.86142 3.39652,2.86142 0.25809,0 1.33071,-1.95603 2.38359,-4.34673 2.25912,-5.12962 3.77215,-6.99256 5.67917,-6.99256 1.75967,0 1.88115,3.26887 0.27333,7.35524 -0.61678,1.56756 -1.98523,5.85856 -3.04103,9.53553 -2.6893,9.36597 -3.75263,11.22866 -6.24319,10.93653 -1.6787,-0.19692 -2.1346,-0.77542 -2.81062,-3.56643 -1.34654,-5.55933 -4.91633,-6.03591 -6.06421,-0.80961 -0.50986,2.32139 -3.07127,6.03088 -4.16432,6.03088 -0.36106,0 -0.86198,-0.33252 -1.11316,-0.73893 z m 29.39603,-1.8313 c -2.07701,-2.07701 -2.57024,-3.15787 -2.57024,-5.63244 0,-10.86282 6.31785,-22.79137 12.07123,-22.79137 1.2064,0 3.06308,-0.33064 4.12598,-0.73475 4.203872,-1.59831 6.481372,1.78392 6.481372,9.6253 0,8.43243 -4.61218,18.27267 -9.828922,20.97036 -3.81263,1.97159 -7.36775,1.47457 -10.27942,-1.4371 z m 8.63816,-1.24319 c 2.38062,-2.55529 5.74623,-13.50099 5.14188,-16.72248 -1.10921,-5.91261 -4.64561,-3.83333 -8.86318,5.21127 -2.72697,5.84799 -2.91569,10.1987 -0.51532,11.87999 2.16508,1.51647 2.50806,1.48662 4.23662,-0.36878 z m -3.64887,-4.00678 c 0,-2.9173 4.54212,-12.39832 5.66964,-11.83456 1.21481,0.6074 0.40698,6.09643 -1.52974,10.39435 -2.09745,4.65459 -4.1399,5.36513 -4.1399,1.44021 z m 20.575982,3.47348 c -0.29879,-0.72761 -0.54063,-6.10436 -0.53744,-11.94836 0.005,-9.02833 0.21436,-10.94373 1.39329,-12.74301 1.79244,-2.73561 2.61566,-1.81219 2.90433,3.25786 0.29276,5.14202 1.90165,6.55042 4.59376,4.02131 2.07951,-1.9536 3.76703,-2.13325 5.08793,-0.54167 2.02397,2.43873 4.26856,0.34989 5.60686,-5.2178 0.72715,-3.02523 4.61845,-6.49946 7.27967,-6.49946 2.85675,0 3.40868,1.14414 1.94555,4.0331 -0.66643,1.31587 -2.5544,5.74311 -4.19548,9.83831 -3.40213,8.48979 -7.33352,15.39146 -9.40436,16.50961 -1.08024,0.58328 -1.91979,0.38902 -3.56016,-0.82375 -2.69202,-1.99031 -4.61182,-2.01296 -6.36553,-0.0752 -1.68767,1.86486 -4.02211,1.95777 -4.74842,0.18899 z m 36.24991,3.85158 c 1.68644,-1.52621 1.79424,-4.26964 0.21913,-5.57686 -1.02846,-0.85355 -0.93556,-1.2032 0.80143,-3.01623 1.31179,-1.36921 2.70829,-4.61609 4.20205,-9.76979 1.23051,-4.24548 2.91094,-9.03949 3.73427,-10.65337 1.80415,-3.5364 1.91101,-6.25231 0.30906,-7.85425 -1.44151,-1.44151 -1.28655,-1.43775 -4.46753,-0.10865 -3.11177,1.30019 -6.03188,6.60366 -9.0076,16.35952 -2.15812,7.07536 -2.40782,9.80883 -1.11646,12.22176 0.72754,1.35943 0.56255,1.80136 -1.13393,3.03716 -2.10198,1.53119 -2.60267,4.18022 -1.07822,5.70466 1.32043,1.32043 5.93116,1.11004 7.5378,-0.34395 z m -6.0475,-2.28689 c 0.17776,-0.93779 1.06175,-1.45267 2.77702,-1.61748 2.09032,-0.20085 2.47211,-0.009 2.25548,1.13393 -0.17777,0.93779 -1.06175,1.45267 -2.77703,1.61748 -2.09031,0.20085 -2.4721,0.009 -2.25547,-1.13393 z m 2.13827,-10.09104 c 0,-2.66947 3.70052,-14.27624 5.9698,-18.72438 1.62033,-3.17613 4.17106,-4.67716 5.57026,-3.27796 0.56874,0.56874 0.22473,2.19701 -1.17379,5.55575 -1.08807,2.61317 -2.73327,7.47264 -3.656,10.79883 -1.96,7.06537 -2.49982,7.9375 -4.91295,7.9375 -1.49687,0 -1.79732,-0.38276 -1.79732,-2.28974 z M 30.994024,146.25469 c 0,-1.07267 -1.80576,-2.71593 -7.50186,-6.82679 -1.69481,-1.22313 -3.08147,-2.78626 -3.08147,-3.47361 0,-0.68735 -0.65268,-1.8404 -1.4504,-2.56233 -1.39319,-1.26081 -1.5746,-1.1884 -4.59871,1.83571 -1.73157,1.73158 -3.03492,3.2151 -2.89633,3.29673 0.13859,0.0816 1.55987,0.74349 3.1584,1.47082 1.59853,0.72732 4.24272,2.39629 5.87599,3.70883 1.72593,1.38699 4.30783,2.60455 6.16502,2.90728 1.75749,0.28646 3.45057,0.56343 3.7624,0.61547 0.31183,0.052 0.56696,-0.38541 0.56696,-0.97211 z m 0.0275,-54.657307 c 0.29478,-0.326926 0.73213,-3.65602 0.9719,-7.397984 0.3908,-6.099288 0.32091,-6.649485 -0.67517,-5.315025 -1.44884,1.941013 -2.81585,6.847575 -2.90181,10.415307 -0.0644,2.674892 -0.43732,3.350086 -1.34745,2.439958 -1.31655,-1.316552 3.27067,-15.585032 4.9065,-15.261613 1.07715,0.212959 1.46713,-1.822087 0.60579,-3.161106 -1.88952,-2.937373 -5.97964,3.754657 -7.67246,12.55327 -1.19675,6.220203 -0.72815,7.344743 2.82056,6.768866 1.5159,-0.245995 2.99737,-0.714746 3.29214,-1.041673 z M 170.54392,140.8779 c -2.0367,-0.55916 -4.1825,-1.49607 -4.76846,-2.08203 -0.71572,-0.71571 0.74772,-0.4726 4.45905,0.74076 l 5.52441,1.80612 1.74564,-2.01852 c 1.01337,-1.1718 1.55318,-2.52006 1.28684,-3.21413 -0.80217,-2.09039 -1.37779,-17.78271 -0.81697,-22.27141 0.60762,-4.86324 1.44699,-5.65139 6.37965,-5.99036 2.40506,-0.16529 3.12014,-0.52234 3.12099,-1.55838 7.5e-4,-1.20341 -0.53255,-1.29304 -5.10157,-0.85702 -2.8689,0.27378 -5.46625,0.93961 -5.9332,1.52097 -1.17789,1.4665 -1.82502,14.61678 -1.09369,22.22467 0.90399,9.40376 0.0942,10.2554 -7.43839,7.82266 -2.96058,-0.95616 -3.88663,-1.62039 -3.95219,-2.83482 -0.57189,-10.59281 -0.1781,-22.35587 0.97853,-29.23069 0.73932,-4.39442 1.46281,-9.837279 1.60775,-12.095233 0.24531,-3.821529 3.33471,-14.417297 5.13078,-17.597143 0.43384,-0.768093 0.68019,-1.486263 0.54743,-1.595936 -0.13275,-0.109674 -2.66361,-0.415003 -5.62414,-0.67852 l -5.38276,-0.479116 -0.42281,3.208981 c -0.23254,1.764937 -0.78248,5.247715 -1.22209,7.739508 -0.43961,2.491785 -0.59725,7.254285 -0.35031,10.583333 0.30847,4.158656 -0.0478,9.837846 -1.13862,18.148046 -1.94691,14.83265 -2.11121,15.44228 -4.39603,16.31097 -3.73462,1.4199 -10.80877,0.34409 -10.80877,-1.64375 0,-0.64333 0.27571,-0.63841 1.06793,0.019 0.64185,0.53269 2.97438,0.79582 5.84631,0.65952 l 4.77839,-0.22677 0.9096,-4.53571 c 2.0761,-10.35239 3.3839,-23.61383 2.85652,-28.965867 -0.52821,-5.360527 0.69199,-19.019399 1.90326,-21.304968 0.33051,-0.623661 1.40681,-1.048756 2.39178,-0.944654 0.98497,0.104103 3.66184,0.234255 5.94859,0.289228 2.28676,0.05496 4.40237,0.480067 4.70138,0.944653 0.35943,0.558483 1.23545,0.15497 2.58535,-1.190859 1.73805,-1.732825 1.89363,-2.213981 1.04611,-3.235189 -0.7849,-0.94575 -0.80715,-1.61321 -0.10513,-3.153977 1.23818,-2.717513 0.52398,-4.314863 -2.96016,-6.620555 -1.64983,-1.091785 -2.99969,-2.162304 -2.99969,-2.378922 0,-0.501023 2.76782,0.941282 5.55474,2.894564 2.05057,1.437194 2.12862,1.703599 1.6415,5.602439 l -0.51145,4.093497 4.08926,-2.307839 c 2.2491,-1.269312 4.91221,-2.302631 5.91803,-2.296266 1.31653,0.0083 1.54092,0.193947 0.80113,0.662683 -0.73777,0.467451 0.17583,1.202062 3.23888,2.604377 3.25854,1.491811 4.51391,2.545367 5.31365,4.459431 1.48362,3.550791 4.3809,19.430675 3.88786,21.309194 -0.22647,0.862844 0.0828,7.19892 0.68724,14.08016 1.4003,15.9415 0.84118,20.41257 -2.99671,23.96335 -1.96283,1.816 -3.35861,2.45685 -5.35101,2.45685 -2.394,0 -2.83195,-0.31709 -3.91525,-2.83482 -0.81746,-1.89988 -1.31969,-5.82663 -1.52278,-11.90625 -0.16668,-4.98929 -0.4285,-9.46616 -0.58184,-9.94861 -0.32669,-1.02786 -6.46541,0.23614 -7.30311,1.50374 -1.03137,1.56067 -1.42439,12.49423 -0.7092,19.72972 0.68918,6.97244 0.63402,7.65648 -0.77723,9.63839 -1.68349,2.36426 -2.39893,2.45468 -7.76502,0.98145 z m 10.68985,-52.709751 c 0.90198,-3.31287 4.94366,-8.88244 6.44574,-8.88244 0.46707,0 -0.22081,1.10558 -1.52863,2.456845 -1.98154,2.047384 -4.72232,6.969178 -4.72232,8.480183 0,0.221245 0.95552,0.402257 2.12337,0.402257 3.61353,0 4.46616,-1.336266 4.9078,-7.691656 0.50576,-7.278136 -0.41441,-7.923999 -5.11561,-3.590585 -4.58672,4.22789 -7.10491,12.038194 -3.88135,12.038194 0.49295,0 1.2899,-1.445759 1.771,-3.212798 z m 9.99345,47.760311 c -0.81608,-1.52484 -0.78805,-1.53294 1.0766,-0.31116 3.32462,2.17837 7.96698,-0.11389 12.05133,-5.95059 0.94395,-1.34894 1.15509,-1.35285 5.60679,-0.10377 5.73828,1.61008 15.2236,1.34555 17.32387,-0.48315 0.76438,-0.66554 2.35456,-1.43968 3.53375,-1.72032 1.17919,-0.28064 3.0043,-1.37057 4.0558,-2.42207 1.70921,-1.70922 1.87361,-2.3669 1.55126,-6.20587 -0.56196,-6.6923 -4.43721,-15.59371 -9.61465,-22.084687 -6.6733,-8.366337 -9.8544,-14.089826 -9.84978,-17.721913 0.007,-5.153659 4.43715,-10.702131 10.57658,-13.24517 3.19752,-1.324451 3.35978,-2.806004 0.58491,-5.340463 -1.33698,-1.221143 -2.06456,-2.220255 -1.61683,-2.220255 1.47424,0 4.81457,3.675781 4.81457,5.298077 0,1.156003 -0.92093,1.997884 -3.37106,3.081686 -4.64919,2.05656 -8.37917,5.790323 -9.49073,9.500363 -1.17016,3.905643 0.11373,7.671503 4.78068,14.022516 1.74208,2.370712 4.73779,6.452855 6.65714,9.071426 4.07565,5.56045 7.47159,14.9626 7.47159,20.68619 0,4.58947 -1.77639,6.61455 -8.41356,9.59144 -6.16685,2.76594 -11.00683,3.23975 -17.52445,1.71557 l -5.43402,-1.27077 -3.96624,3.83925 c -3.41295,3.30367 -4.38471,3.83925 -6.96596,3.83925 -2.26032,0 -3.20624,-0.3859 -3.83759,-1.56558 z M -7.3145764,135.26508 c -7.0633796,-1.89333 -9.3788996,-3.14615 -12.4533196,-6.73793 -1.393,-1.6274 -2.8729,-3.04151 -3.28867,-3.14248 -1.38725,-0.33686 -4.34664,-8.62175 -4.72045,-13.21503 -0.68712,-8.44316 2.76935,-22.946219 7.9272,-33.261907 2.61758,-5.23516 9.49657,-13.494332 13.3838496,-16.069167 3.96127,-2.623835 13.32211,-5.907132 15.00278,-5.262199 0.67515,0.259072 2.4581904,2.324523 3.9623004,4.589886 3.45398,5.202071 3.44461,8.320147 -0.0259,8.62562 C 7.0186236,71.271986 5.0990236,71.977448 0.24114362,75.287235 -6.2592364,79.716103 -13.418476,87.036186 -15.233956,91.110006 c -0.78173,1.754165 -1.36959,4.745793 -1.33691,6.803574 0.0321,2.01999 -0.18026,6.82444 -0.47186,10.67654 -0.50901,6.72397 -0.45109,7.12335 1.44947,9.99529 2.43835,3.68459 5.08341,5.10254 9.6670996,5.1823 2.83116,0.0493 4.08388,-0.38424 6.37726002,-2.20679 3.98619998,-3.16783 6.10989998,-2.6112 12.47945038,3.27092 1.85635,1.7143 1.80584,2.81324 -0.27092,5.89495 -3.6392804,5.40033 -10.7396804,7.01359 -19.9741904,4.53829 z m 91.4564144,-2.74891 c -1.85842,-1.71213 -1.88961,-1.80572 -0.25192,-0.75595 3.03417,1.94494 5.64423,1.52106 7.75071,-1.25874 3.83817,-5.06498 3.93323,-5.52902 3.70481,-18.08412 -0.20408,-11.21664 -0.1345,-11.89089 1.3067,-12.6622 2.39818,-1.28347 2.8147,-0.9563 0.97021,0.7621 -1.6419,1.52967 -1.67735,1.87418 -1.18605,11.52827 0.33682,6.61857 0.21978,10.96421 -0.34948,12.9753 -1.19023,4.20488 -6.21888,9.4494 -9.06046,9.4494 -0.41992,0 -1.71796,-0.87932 -2.88452,-1.95406 z m -0.61674,-2.59398 c -0.26115,-0.42256 -0.77341,-0.58375 -1.13835,-0.3582 -0.36494,0.22554 -0.76665,-1.38476 -0.8927,-3.57845 -0.1597,-2.77931 -0.52645,-3.92763 -1.20968,-3.78768 -0.53928,0.11046 -2.47795,-0.82943 -4.30815,-2.08865 -4.76337,-3.27727 -4.99095,-4.24167 -0.26678,-1.13044 2.17463,1.43216 4.07449,2.48331 4.22192,2.33588 0.14743,-0.14743 0.3805,-7.53814 0.51793,-16.4238 0.17261,-11.159602 0.65029,-18.259726 1.54466,-22.959308 0.71213,-3.741964 1.57519,-8.956766 1.91792,-11.58844 0.34273,-2.631682 0.81194,-4.973675 1.04269,-5.20443 0.23077,-0.230762 1.45533,0.0095 2.72128,0.533839 2.28493,0.946445 3.669,3.665855 2.68012,5.265888 -0.75565,1.222678 1.19943,15.377334 2.28776,16.563242 1.90547,2.076322 2.48819,0.196056 1.31631,-4.247409 -0.76819,-2.91279 -1.01327,-6.151767 -0.74301,-9.819421 l 0.4033,-5.472921 -3.15392,-1.890463 c -3.82519,-2.292819 -3.13138,-2.502482 1.11402,-0.336641 l 3.07377,1.568118 -0.51028,4.084146 c -0.67962,5.439523 0.98735,15.665495 2.46148,15.099823 0.5791,-0.222219 1.87176,-0.609554 2.87256,-0.860742 1.000812,-0.251188 1.836282,-0.504871 1.856622,-0.563744 0.63018,-1.824915 1.8255,-17.969389 1.41405,-19.09885 -0.82315,-2.259587 0.54913,-3.308781 4.32766,-3.308781 4.42649,0 6.86884,2.258023 7.76778,7.181548 2.27936,12.483964 1.41662,48.275516 -1.23426,51.204696 -1.8647,2.06048 -3.10212,2.61921 -7.14238,3.22503 -3.19801,0.47952 -3.60985,0.36417 -4.45672,-1.24831 -0.90915,-1.73106 -0.89463,-1.74256 0.56567,-0.44801 1.1052,0.97974 2.17628,1.20039 4.07875,0.84024 3.0355,-0.57463 6.54069,-2.45493 7.04985,-3.78179 0.87918,-2.29112 1.32562,-38.866023 0.55609,-45.558175 -0.84535,-7.351448 -2.52398,-10.690762 -5.34672,-10.636288 -1.03264,0.01996 -1.022,0.121663 0.0799,0.764518 2.48272,1.448359 3.23482,8.391449 3.15994,29.171348 -0.0864,23.968457 -0.22807,24.968067 -3.748,26.438787 -1.44579,0.60409 -3.81249,1.01862 -5.25934,0.92118 -4.249162,-0.28617 -4.638642,-2.9936 -3.13446,-21.78906 0.12704,-1.58742 -0.211702,-1.92546 -2.116612,-2.112168 -1.24732,-0.12226 -2.94822,0.276828 -3.77976,0.886868 -1.41797,1.04024 -1.49658,1.82904 -1.2652,12.6955 0.13926,6.54061 -0.0802,12.40938 -0.504,13.47623 -1.81577,4.57118 -7.37576,8.37497 -8.82176,6.03529 z m 40.147072,-1.1216 c -1.17789,-4.76293 -2.01363,-16.03456 -1.62548,-21.92262 0.99449,-15.085339 2.22049,-23.97162 3.36803,-24.411977 0.61414,-0.235661 1.25041,-0.02706 1.41393,0.463474 0.16353,0.490576 0.72652,0.891956 1.2511,0.891956 5.73499,0 10.84471,32.263727 6.62167,41.810587 -1.1524,2.60519 -2.07303,3.55993 -4.03053,4.17985 -3.74824,1.18705 -6.55539,0.78144 -6.99872,-1.01127 z m -53.084662,0.41549 c -2.69633,-0.64349 -11.62324,-6.66351 -11.62324,-7.83835 0,-0.428 0.7654,-0.0739 1.70089,0.78681 6.1692,5.67627 12.7236,7.59664 17.47332,5.11949 2.47311,-1.28982 2.7495,-1.34643 2.74557,-0.56231 -0.003,0.63303 -6.01633,3.25648 -7.18665,3.13542 -0.41141,-0.0426 -1.81086,-0.33103 -3.10989,-0.64106 z m 139.038932,-1.55867 c -0.91423,-0.36816 -2.30554,-1.31268 -3.09179,-2.09894 -1.49743,-1.49743 -1.61689,-2.58565 -3.17082,-28.885857 -0.62111,-10.512311 -2.41318,-20.745404 -4.2656,-24.357541 -0.58018,-1.131313 -1.81665,-2.773914 -2.74769,-3.650214 l -1.69282,-1.593276 2.13556,0.962569 c 1.17456,0.529417 2.59878,1.858328 3.16493,2.953136 1.44207,2.788663 5.08314,20.90894 4.54323,22.610037 -0.24482,0.771351 -0.0535,5.946036 0.42516,11.499286 0.47865,5.55326 0.9628,11.96782 1.07589,14.25457 0.11309,2.28676 0.24316,4.30208 0.28906,4.4785 0.0459,0.17643 0.84883,-0.3791 1.78432,-1.23448 0.9355,-0.85539 2.72143,-2.07216 3.96875,-2.70393 8.19469,-4.15062 7.96064,-13.60418 -0.63529,-25.659604 -3.07529,-4.312965 -5.34357,-9.320046 -7.44683,-16.438434 -0.55566,-1.880568 -0.51256,-3.812608 0.15176,-6.803571 1.97262,-8.88136 5.96511,-13.337971 12.53478,-13.991923 2.72904,-0.271651 3.21096,-0.192103 1.82118,0.300597 -1.62899,0.57751 -1.4174,0.680402 1.53269,0.745354 3.54517,0.07805 6.78279,1.70431 6.78279,3.407009 0,0.537936 -1.6476,2.002261 -3.66132,3.254065 -4.46661,2.776598 -7.25086,6.31825 -8.41977,10.710197 -0.81999,3.080968 -0.71976,3.638664 1.44383,8.033529 1.27875,2.597505 4.89813,8.172994 8.04308,12.389976 8.32514,11.162965 12.00069,23.162295 8.33564,27.212835 -0.79204,0.87535 -1.81528,1.59155 -2.27387,1.59155 -0.45859,0 -2.43135,0.85045 -4.38392,1.88988 -2.89132,1.53917 -4.57364,1.88099 -9.06541,1.84196 -3.03341,-0.0264 -6.2633,-0.34913 -7.17752,-0.71728 z M 63.553828,122.7675 c -2.67292,-1.83618 -5.10067,-3.18967 -5.395,-3.00775 -0.29433,0.18191 -0.99892,-0.26083 -1.56575,-0.98385 -0.93262,-1.18962 -0.90483,-1.21596 0.29232,-0.2771 1.82695,1.4328 1.68035,0.84749 -1.05323,-4.2051 -6.722984,-12.42636 -6.892774,-12.93508 -6.542764,-19.603541 0.25681,-4.892925 0.11739,-6.099062 -0.67007,-5.796885 -0.6828,0.262013 -0.99436,-0.314355 -0.99436,-1.839504 0,-4.498272 -3.6998,-20.789825 -5.06358,-22.296793 -0.74824,-0.826785 -2.55141,-2.133252 -4.00705,-2.903258 -1.45565,-0.769998 -2.30645,-1.409435 -1.89067,-1.420971 0.41577,-0.01157 2.11666,0.748665 3.77976,1.689334 3.62606,2.050952 5.31101,5.272942 6.43415,12.30348 0.44798,2.804312 1.1821,6.812666 1.63135,8.907455 l 0.81682,3.808715 1.79306,-4.769644 c 2.425364,-6.451584 5.306524,-10.149121 11.330334,-14.540706 6.95041,-5.067111 9.98993,-5.680649 12.13193,-2.44887 0.98102,1.480132 0.67389,2.046371 -4.30538,7.9375 -2.94896,3.489023 -6.42573,8.554834 -7.72616,11.257363 -2.0414,4.24242 -2.34441,5.64636 -2.21809,10.276833 0.0805,2.949722 0.61865,6.932612 1.19595,8.850852 1.39894,4.6483 7.53836,12.88558 11.98895,16.08561 4.02991,2.89755 4.51185,4.53941 1.65168,5.62684 -3.79298,1.4421 -6.58452,0.80515 -11.6142,-2.65001 z m 79.998892,2.13154 c -1.52762,-0.40881 -2.18964,-8.60458 -2.18964,-27.10762 0,-10.726311 0.33442,-14.786751 1.90375,-23.11504 1.04706,-5.556651 1.75041,-10.502613 1.56298,-10.991034 -0.18742,-0.488413 -1.36662,-1.113336 -2.62045,-1.388722 -1.25382,-0.275393 -3.59308,-1.753227 -5.19835,-3.284084 -1.60528,-1.530856 -2.04817,-2.057808 -0.9842,-1.170993 2.64018,2.200578 9.81922,5.510167 10.29224,4.744796 0.48692,-0.787861 -2.42935,-2.696467 -5.13732,-3.362212 -1.13917,-0.280065 -3.32035,-1.653358 -4.84707,-3.051772 -3.50967,-3.21474 -2.53205,-3.74139 5.63676,-3.036585 3.19949,0.276059 10.09786,0.748899 15.32972,1.050766 6.74303,0.389051 9.87161,0.87633 10.74608,1.673709 2.21534,2.020033 3.24666,2.797099 4.85404,3.657335 1.34213,0.718291 1.52095,1.337356 1.1759,4.071008 -0.60356,4.781641 -1.90744,5.869736 -7.03382,5.869736 -2.37793,0 -5.71817,-0.492065 -7.42275,-1.093478 -3.68653,-1.300684 -4.34251,-0.664928 -3.12388,3.027567 0.63661,1.928948 0.66091,3.639729 0.0884,6.221828 -1.28838,5.810432 -1.61465,10.836328 -1.01638,15.656583 0.30962,2.494643 0.29164,6.576782 -0.04,9.071432 -0.3316,2.49464 -1.09117,8.22833 -1.68793,12.74154 -0.59676,4.51321 -1.47888,8.6804 -1.96025,9.26042 -0.82775,0.99737 -5.50875,1.30923 -8.32784,0.55482 z m -154.803676,-3.75677 c -0.96798,-0.678 -2.20405,-2.29558 -2.74682,-3.59462 -0.99927,-2.39159 -0.89713,-3.94614 1.22254,-18.60718 0.39073,-2.702529 0.7466,-5.764136 0.79083,-6.803571 0.0442,-1.039434 0.23322,-1.472436 0.41999,-0.962221 0.18677,0.510207 1.7595796,-1.184888 3.4951396,-3.766881 1.73556,-2.581993 4.34619,-5.477366 5.8014,-6.434168 1.45521002,-0.956801 3.53264,-2.56134 4.61652,-3.565638 1.08388,-1.004298 3.65135,-2.464594 5.70548,-3.245107 3.2815904,-1.246906 4.0973704,-1.29924 6.7227604,-0.431278 l 2.98798,0.987825 -3.12998,-0.358382 C 8.9241336,73.707166 4.1929736,76.235071 -4.3048664,84.48075 c -3.41871,3.317262 -7.9843196,11.562843 -7.3367696,13.25034 0.1904,0.49616 -0.17396,3.37473 -0.80968,6.39683 -2.03457,9.67204 -1.36128,14.16501 2.5892196,17.27809 1.7366,1.36848 0.6457,1.16132 -1.3888596,-0.26374 z m 77.387074,-11.42948 c -1.70865,-3.02407 -2.09285,-4.79298 -2.43436,-11.20823 -0.26584,-4.993604 -0.0898,-8.574233 0.51118,-10.395118 1.22107,-3.69988 5.39299,-9.743621 10.35721,-15.004218 2.22689,-2.359834 4.04888,-4.64058 4.04888,-5.068321 0,-0.42774 -0.8659,-1.643622 -1.92424,-2.701955 -2.27913,-2.279121 -1.37278,-2.617447 1.02575,-0.382882 0.90994,0.84774 1.64972,2.123409 1.64395,2.834821 -0.006,0.711404 -2.39617,3.991746 -5.31201,7.289641 -2.91583,3.297895 -6.36003,8.146324 -7.65377,10.774287 -2.22677,4.523226 -2.33158,5.13086 -1.96468,11.390725 0.27304,4.65846 0.95854,8.00886 2.31964,11.33732 1.06264,2.59859 1.81489,4.72471 1.67168,4.72471 -0.14322,0 -1.17337,-1.61585 -2.28923,-3.59078 z M 124.04369,76.486183 c -1.53906,-3.377883 -1.9799,-9.334349 -0.74853,-10.113978 1.9077,-1.207838 3.87629,-0.729176 5.69704,1.38523 4.4559,5.174562 3.67107,10.772321 -1.51033,10.772321 -1.99089,0 -2.69876,-0.420748 -3.43818,-2.043573 z"
       id="path27"
       inkscape:connector-curvature="0" />
  </g>
</svg>
