<?xml version="1.0" encoding="UTF-8" standalone="no"?>
<!-- Created with Inkscape (http://www.inkscape.org/) -->

<svg
   xmlns:dc="http://purl.org/dc/elements/1.1/"
   xmlns:cc="http://creativecommons.org/ns#"
   xmlns:rdf="http://www.w3.org/1999/02/22-rdf-syntax-ns#"
   xmlns:svg="http://www.w3.org/2000/svg"
   xmlns="http://www.w3.org/2000/svg"
   xmlns:sodipodi="http://sodipodi.sourceforge.net/DTD/sodipodi-0.dtd"
   xmlns:inkscape="http://www.inkscape.org/namespaces/inkscape"
   width="210mm"
   height="297mm"
   viewBox="0 0 210 297"
   version="1.1"
   id="svg926"
   inkscape:version="0.92.5 (2060ec1f9f, 2020-04-08)"
   sodipodi:docname="elkaiser.svg">
  <defs
     id="defs920" />
  <sodipodi:namedview
     id="base"
     pagecolor="#ffffff"
     bordercolor="#666666"
     borderopacity="1.0"
     inkscape:pageopacity="0.0"
     inkscape:pageshadow="2"
     inkscape:zoom="0.49497475"
     inkscape:cx="148.30803"
     inkscape:cy="630.29437"
     inkscape:document-units="mm"
     inkscape:current-layer="layer1"
     showgrid="false"
     inkscape:window-width="1366"
     inkscape:window-height="704"
     inkscape:window-x="0"
     inkscape:window-y="27"
     inkscape:window-maximized="1" />
  <metadata
     id="metadata923">
    <rdf:RDF>
      <cc:Work
         rdf:about="">
        <dc:format>image/svg+xml</dc:format>
        <dc:type
           rdf:resource="http://purl.org/dc/dcmitype/StillImage" />
        <dc:title></dc:title>
      </cc:Work>
    </rdf:RDF>
  </metadata>
  <g
     inkscape:label="Layer 1"
     inkscape:groupmode="layer"
     id="layer1">
    <path
       style="fill:#e3e3f9;stroke-width:0.26458332;fill-opacity:1"
       d="m 124.61878,130.90843 c -12.6102,-0.74325 -24.964757,-2.94301 -34.395827,-6.12428 -9.44784,-3.18692 -17.76139,-7.8414 -23.05917,-12.91006 -1.04113,-0.9961 -1.99153,-1.68408 -2.32644,-1.68408 -0.88626,0 -3.10122,2.26716 -3.97947,4.07326 -0.51534,1.05978 -0.97644,2.70718 -1.34078,4.79028 -0.65855,3.7652 -1.28591,5.01775 -3.08663,6.16264 -4.41624,2.80781 -6.36484,0.76828 -4.64773,-4.86463 0.40452,-1.32704 0.40012,-1.36616 -0.28592,-2.53679 -0.78168,-1.33383 -0.90044,-2.76625 -0.32066,-3.86759 0.20686,-0.39295 0.99039,-1.30977 1.74116,-2.03738 1.80554,-1.74982 2.0928,-2.36466 3.71275,-7.94673 5.49769,-18.944146 6.67343,-25.104706 6.71415,-35.180347 l 0.0235,-5.820834 1.32292,0.0149 c 0.94623,0.01066 2.07629,0.337728 3.96875,1.148657 3.21653,1.378302 3.75891,1.842844 3.99577,3.42233 0.23026,1.535462 -0.29625,9.808258 -0.80763,12.690028 -1.01865,5.74032 -3.03295,12.44531 -5.84534,19.45731 -0.24658,0.614786 6.54199,-6.31603 10.43162,-10.65021 5.4732,-6.09873 10.02388,-12.06808 13.12967,-17.22281 2.02408,-3.35941 5.09624,-9.628818 5.99476,-12.233646 0.33883,-0.982266 0.75822,-1.785937 0.93197,-1.785937 0.57699,0 4.326527,3.217796 5.666007,4.862483 1.50456,1.847382 1.52515,2.174494 0.31828,5.059021 -4.601857,10.998939 -12.982237,21.172029 -28.853087,35.025265 l -3.50465,3.05912 1.25569,1.2868 c 7.42157,7.60548 19.65724,13.28608 33.695907,15.64384 7.05083,1.18417 9.54551,1.3422 21.00562,1.33065 13.42191,-0.0135 19.60237,-0.55256 36.87529,-3.21614 3.43848,-0.53023 6.9228,-1.01321 7.74292,-1.07328 1.44938,-0.10617 1.5113,-0.0828 2.21185,0.8357 0.9029,1.18376 3.0439,6.31722 3.0439,7.29832 0,1.03588 -0.54922,1.37099 -2.44482,1.49176 -0.91092,0.058 -5.16857,0.34275 -9.46143,0.63271 -13.34646,0.9015 -17.53841,1.05213 -27.91354,1.00303 -5.52979,-0.0262 -10.70901,-0.0862 -11.50938,-0.13336 z m 11.86503,-13.93084 c -1.78636,-0.66133 -3.3785,-1.76623 -4.31788,-2.9965 -0.51291,-0.67174 -0.93256,-1.34216 -0.93256,-1.48982 0,-0.14766 -0.74414,0.44387 -1.65365,1.3145 -3.12254,2.9891 -5.47186,3.83177 -7.68963,2.75817 -1.2134,-0.5874 -2.32476,-1.90745 -2.83277,-3.36474 l -0.28725,-0.82401 -1.45686,1.52737 c -1.85618,1.94601 -3.56973,2.74296 -5.9236,2.75498 -2.63304,0.0134 -4.58574,-1.35616 -5.53196,-3.88009 l -0.26987,-0.71984 -1.39856,1.39675 c -2.91477,2.911 -6.584597,3.79312 -9.253417,2.22427 -5.29433,-3.11225 -6.06814,-10.99052 -1.90896,-19.435536 2.39378,-4.86047 5.73045,-7.96617 9.627217,-8.96082 4.8765,-1.24472 8.61891,1.12069 9.39949,5.941 0.21912,1.35319 -0.0236,1.61073 -1.52383,1.61686 -0.65358,0.003 -1.13666,-0.16752 -1.41552,-0.49866 -1.78345,-2.11784 -2.16901,-2.40771 -3.20258,-2.40771 -3.17669,0 -6.134477,4.18797 -7.637697,10.814336 -1.35572,5.97616 -0.39291,8.91818 2.523267,7.71026 1.70352,-0.70562 3.75729,-3.75872 5.5496,-8.24993 0.84974,-2.1293 1.08047,-4.511446 0.5356,-5.529556 -0.24712,-0.46174 -0.18116,-0.51178 0.6746,-0.51178 1.67672,0 4.56213,1.85821 5.57855,3.59259 0.9317,1.589826 0.85375,3.291646 -0.29071,6.347266 -0.95066,2.53815 -1.16838,4.26406 -0.60855,4.82389 0.64669,0.64669 1.55472,0.32842 3.02191,-1.05918 2.25101,-2.12892 3.74762,-5.40487 5.53565,-12.117066 0.79468,-2.98317 1.62493,-6.369 1.84501,-7.52405 0.22009,-1.15506 0.6054,-2.32689 0.85624,-2.60408 0.96765,-1.06924 3.4669,0.10154 5.12074,2.39883 0.80329,1.1158 0.89708,1.42797 0.89143,2.9668 -0.005,1.39434 -0.24802,2.37071 -1.28348,5.15938 -1.32876,3.578536 -3.51144,10.862396 -3.65474,12.196266 -0.0735,0.68368 0.006,0.77698 0.72038,0.84697 1.5582,0.15266 4.24903,-2.62144 5.26578,-5.42873 0.53285,-1.47122 1.752,-4.07749 2.26233,-4.83639 0.24465,-0.3638 1.08303,-2.268796 1.86308,-4.233326 1.3862,-3.49114 3.97161,-8.80439 5.41865,-11.13584 0.94338,-1.51996 1.71873,-2.35791 2.18174,-2.35791 0.56204,0 3.2257,1.83693 4.49664,3.101 1.3673,1.35992 1.4452,2.17947 0.34885,3.67028 -2.35683,3.20479 -2.71938,7.66594 -1.17526,14.461526 0.32058,1.41086 0.50806,1.78594 0.8927,1.78594 0.40721,0 0.51593,-0.29233 0.66428,-1.78594 0.73311,-7.381496 4.35418,-13.367816 9.71713,-16.064286 3.37876,-1.69882 6.52093,-1.50913 8.54597,0.51592 1.39982,1.39982 1.7924,2.57416 1.66718,4.98711 -0.0837,1.61283 -0.28333,2.27173 -1.33602,4.4097 -2.13295,4.331906 -4.66325,6.947116 -8.63851,8.928366 -1.07114,0.53386 -2.00672,1.12489 -2.07905,1.3134 -0.42898,1.11789 1.33493,3.3599 2.86997,3.64788 2.24014,0.42025 4.84641,-1.20027 7.12861,-4.43238 1.29525,-1.83438 5.36699,-9.848806 6.03901,-11.886646 0.2836,-0.85995 0.25393,-1.10614 -0.25309,-2.09998 -0.84426,-1.65488 -0.60979,-3.02786 1.74683,-10.2292 0.12152,-0.37136 1.68743,0.31517 3.1156,1.36594 1.9151,1.40903 2.55606,4.14442 1.51074,6.44731 -0.28074,0.61846 -0.45828,1.12448 -0.39455,1.12448 0.44338,0 4.15835,-2.51009 5.57139,-3.76443 0.94627,-0.83998 1.77907,-1.52724 1.85068,-1.52724 0.3489,0 2.14704,1.06126 2.5464,1.50288 0.8671,0.95885 1.32509,2.47825 1.13305,3.7589 -0.30079,2.00581 -1.07417,3.70065 -3.68779,8.081716 -2.39729,4.01846 -3.68533,6.69126 -4.12419,8.55809 -0.24905,1.05944 0.28917,1.75377 1.16065,1.49729 2.10169,-0.61853 4.10827,-3.16946 5.45532,-6.93523 1.65707,-4.632446 2.54608,-5.417106 4.22982,-3.733366 1.02442,1.024416 1.00649,1.196676 -0.53498,5.139226 -1.93885,4.95896 -5.85543,10.0509 -8.84347,11.49738 -1.94221,0.94021 -3.49298,0.99341 -5.26813,0.18072 -1.69373,-0.77542 -2.66734,-1.70761 -3.36471,-3.22157 -0.6836,-1.48407 -0.66663,-4.94852 0.037,-7.54594 0.69051,-2.54907 3.2115,-7.606436 4.54919,-9.126126 l 1.04057,-1.18216 -0.74782,0.14085 c -0.41131,0.0775 -1.28074,0.22794 -1.93208,0.33439 -1.10817,0.18111 -1.2308,0.28662 -1.90898,1.64252 -0.3986,0.79693 -1.10238,2.520526 -1.56394,3.830216 -1.32286,3.75362 -3.48357,8.03356 -5.09562,10.09343 -1.6449,2.10186 -3.30668,3.43773 -5.6306,4.52635 -1.40838,0.65974 -1.82784,0.72605 -4.59265,0.72605 -2.56017,0 -3.2389,-0.0907 -4.27982,-0.57173 -1.6583,-0.7664 -3.56263,-2.56556 -4.34068,-4.10098 -0.61692,-1.21742 -0.65899,-1.24623 -1.42833,-0.97804 -0.58356,0.20343 -0.86925,0.53186 -1.08287,1.24488 -0.4568,1.52467 -1.60554,3.00151 -3.01083,3.87082 -1.13931,0.70476 -1.56207,0.8076 -3.5631,0.86675 -1.41759,0.0419 -2.63374,-0.0674 -3.23768,-0.29099 z m 3.00783,-4.59123 c 1.31629,-1.18612 1.26016,-4.02517 -0.16258,-8.22256 -0.50688,-1.4954 -1.00721,-3.28134 -1.11185,-3.96875 l -0.19026,-1.249826 -0.59298,1.283386 -0.59298,1.2834 0.94799,1.9962 c 0.89146,1.87716 1.30016,4.20452 0.82241,4.68329 -0.0894,0.0896 -0.51821,-0.0411 -0.95284,-0.29059 -0.68651,-0.394 -0.90122,-0.40756 -1.63581,-0.10328 -0.46507,0.19264 -1.02611,0.69936 -1.24675,1.12604 -1.26719,2.45047 2.64829,5.32559 4.71565,3.46269 z m 18.24191,-10.0677 c 2.8902,-2.18831 5.62129,-6.187926 5.96251,-8.731976 0.16947,-1.26347 -0.0586,-1.45322 -1.32615,-1.10324 -1.36114,0.37582 -3.01031,1.72341 -4.18427,3.41907 -1.00422,1.45049 -2.40865,4.872136 -2.75283,6.706786 -0.25054,1.33549 0.23385,1.2743 2.30074,-0.29064 z m -123.205387,5.25461 c -2.32233,-1.07182 -3.06269,-2.65096 -3.28173,-6.99968 l -0.15786,-3.134116 -0.72779,0.57378 c -1.03749,0.81796 -2.10325,2.761436 -2.10325,3.835406 0,0.52656 0.2342,1.2123 0.55202,1.61635 0.68517,0.87105 0.5221,1.16875 -0.64021,1.16875 -0.74881,0 -0.98239,-0.14733 -1.36329,-0.8599 -0.57702,-1.07945 -0.58563,-3.66565 -0.0166,-4.997856 0.52943,-1.2396 2.09153,-2.96318 3.62257,-3.99709 0.66317,-0.44783 1.24227,-0.84138 1.2869,-0.87455 0.16771,-0.12466 1.64646,-7.07807 1.53003,-7.1945 -0.26277,-0.26277 -2.8895,0.82482 -4.35392,1.80272 -1.88712,1.26017 -2.94579,2.69846 -2.94579,4.0021 0,0.75482 0.24792,1.22509 1.20987,2.29501 0.66543,0.74012 1.13465,1.46737 1.04272,1.61612 -0.23394,0.37852 -2.51484,0.33077 -3.30532,-0.0692 -1.35063,-0.68339 -2.30101,-3.34417 -1.95882,-5.48412 0.7295,-4.56202 6.52818,-7.96578 16.66051,-9.77951 1.73365,-0.31033 3.94552,-0.84012 4.91528,-1.1773 l 1.76319,-0.61308 0.28733,1.14108 c 0.33088,1.31406 0.36506,2.49346 0.0848,2.92791 -0.10692,0.16575 -2.15892,0.67018 -4.56001,1.12096 -2.4011,0.45078 -4.82283,0.94879 -5.38162,1.1067 -0.94442,0.26689 -0.98659,0.3196 -0.59862,0.7483 0.87244,0.96404 1.01768,1.98783 0.54779,3.86144 -0.24276,0.96798 -0.39969,1.79611 -0.34874,1.84029 0.051,0.0442 1.64046,-0.36511 3.53223,-0.90953 1.89177,-0.54442 3.52888,-0.93864 3.63802,-0.87606 0.33675,0.19312 0.2238,2.90883 -0.13229,3.1807 -0.1819,0.13888 -1.16417,0.39696 -2.18282,0.5735 -1.01864,0.17655 -2.77365,0.56648 -3.90002,0.86651 -1.9906,0.53025 -2.05539,0.57318 -2.31397,1.5335 -1.28545,4.773776 -0.98565,7.567996 0.89635,8.354346 1.21726,0.5086 2.14005,0.31096 5.18464,-1.11044 l 2.51282,-1.17314 0.46374,0.57269 c 0.2862,0.35344 0.46374,1.02212 0.46374,1.74664 0,1.45827 -0.79707,2.29493 -2.73444,2.87027 -1.92832,0.57265 -5.84308,0.51546 -7.18744,-0.105 z m 12.77368,-1.48278 c -1.10168,-1.10168 -1.40029,-2.31851 -1.3639,-5.55777 0.0237,-2.110156 0.26422,-4.063366 0.87471,-7.103546 0.4631,-2.30622 0.92464,-5.10275 1.02563,-6.21452 0.14987,-1.64974 0.27115,-2.03817 0.65966,-2.11263 1.17017,-0.22428 2.82856,1.77443 2.83027,3.41109 5.3e-4,0.51974 -0.48524,2.96052 -1.07951,5.42396 -1.14722,4.75557 -1.69726,9.902936 -1.05822,9.902936 0.68292,0 1.65494,-1.52333 2.30747,-3.6162 0.69932,-2.242976 0.93574,-2.483856 1.81021,-1.844436 0.47705,0.34883 0.47776,0.41357 0.0224,2.050526 -1.02027,3.66777 -2.62575,5.93292 -4.41037,6.22252 -0.74548,0.12098 -1.03648,0.0199 -1.61835,-0.56193 z M 127.65055,86.339174 c -2.11755,-1.95188 -2.92974,-4.41096 -1.97525,-5.98048 0.28301,-0.46538 0.82671,-0.92449 1.2082,-1.02024 1.04393,-0.262 2.75688,0.36607 3.77493,1.38413 0.90401,0.904 0.90634,0.91272 0.78775,2.95008 -0.154,2.64577 -0.59903,3.60386 -1.72465,3.71295 -0.68803,0.0667 -1.07613,-0.12941 -2.07098,-1.04644 z m -21.69319,-1.31071 c -0.33354,-1.05091 0.15583,-2.82577 1.2455,-4.51718 0.88744,-1.37748 3.98074,-5.81754 4.39231,-6.3046 0.36312,-0.42973 3.75513,4.36647 3.76072,5.31753 0.005,0.77711 -4.31669,4.50014 -6.53282,5.62844 -1.24334,0.63302 -2.64465,0.5723 -2.86571,-0.12419 z"
       id="path941"
       inkscape:connector-curvature="0"
       inkscape:export-xdpi="299"
       inkscape:export-ydpi="299" />
  </g>
</svg>
